<svg xmlns="http://www.w3.org/2000/svg" xmlns:xlink="http://www.w3.org/1999/xlink" id="Layer_1" x="0px" y="0px" width="512px" height="512px" viewBox="0 0 512 512" xml:space="preserve"><g>	<circle fill="#0B0C0C" cx="256" cy="256" r="256"></circle>	<g>		<polygon fill="#51AA7A" points="304.56,205.051 300.11,211.032 304.143,216.595 321.737,206.651 330.463,198.642 330.463,188.778     328.065,187.596 315.286,197.245   "></polygon>		<polygon fill="#544D9A" points="328.065,186.831 319.164,185.406 307.551,188.987 294.338,200.879 293.781,203.174     299.136,209.085 309.915,200.573   "></polygon>		<polygon fill="#51AA7A" points="306.299,171.463 296.007,181.129 288.027,190.656 283.489,198.653 291.695,203.73     304.769,190.308 311.375,177.791 309.289,173.618   "></polygon>		<polygon fill="#544D9A" points="303.726,172.158 292.947,174.036 278.204,184.675 272.328,194.207 282.307,198.653     290.861,185.927 303.03,175.148   "></polygon>		<polygon fill="#51AA7A" points="280.29,163.396 270.972,174.661 261.166,192.754 271.945,194.968 278.76,181.407 283.489,169.655       "></polygon>		<polygon fill="#544D9A" points="266.173,168.959 261.584,176.4 255.116,192.186 260.888,192.186 269.233,177.095 280.29,163.396     274.866,163.396 268.26,166.386   "></polygon>		<polygon fill="#51AA7A" points="259.15,164.787 254.373,172.948 250.04,178.904 246.215,191.212 254.373,192.186 259.15,182.172     262.557,171.045 262.557,166.803   "></polygon>		<polygon fill="#544D9A" points="257.481,165.621 250.874,178.278 245.241,192.186 238.565,191.421 243.572,176.956     250.109,168.681   "></polygon>		<polygon fill="#51AA7A" points="239.15,168.681 230.429,191.56 239.748,192.186 243.225,175.849 243.225,170.698 241.556,168.681       "></polygon>		<polygon fill="#544D9A" points="229.386,176.817 227.23,192.754 230.081,192.754 239.15,168.681 234.741,169.376   "></polygon>		<polygon fill="#51AA7A" points="224.663,172.948 227.979,176.95 226.684,194.446 218.717,194.446 217.828,188.271   "></polygon>		<polygon fill="#544D9A" points="221.555,174.482 216.638,195.296 208.983,199.135 210.912,191.524 213.243,182.363     217.828,175.849   "></polygon>		<polygon fill="#E4221C" points="310.257,184.505 325.704,173.057 345.428,167.54 347.014,173.126 347.014,185.057     344.393,198.229 334.463,200.573 330.463,198.642 329.911,189.608 325.015,185.195 315.498,185.333   "></polygon>		<polygon fill="#F6B221" points="171.804,338.376 175.086,347.301 194.578,344.633 193.757,335.401 183.191,336.734   "></polygon>		<polygon fill="#E4C98F" points="146.978,306.779 156.518,315.089 162.571,322.988 172.214,329.861 173.958,323.501     178.882,323.296 181.769,324.937 184.216,319.603 191.397,321.654 192.731,318.782 198.476,318.32 197.04,310.883     198.476,306.369 202.066,308.626 203.605,312.422 216.287,320.393 203.81,325.655 176.112,332.323 154.672,332.323     148.722,329.451 145.337,317.756 143.224,309.375   "></polygon>		<polygon fill="#E4C98F" points="123.502,267.485 132.539,298.09 137.524,301.675 139.622,295.816 143.382,275.267     145.743,275.355 148.804,290.045 154.313,293.962 162.707,277.716 167.779,282.613 173.375,283.05 177.048,287.247     182.469,286.23 185.005,289.695 187.716,289.783 191.913,286.635 169.178,273.095 156.411,269.496 146.705,266.785     132.277,265.999   "></polygon>		<polygon fill="#E4221C" points="326.137,289.191 331.398,310.634 335.568,307.756 330.852,288.099   "></polygon>		<polygon fill="#F6B221" points="315.034,280.424 320.161,312.799 325.435,327.741 333.785,322.028 327.486,294.633 323.53,275.15       "></polygon>		<polygon fill="#CD911C" points="315.034,280.424 319.575,307.818 325.435,327.741 305.804,336.384 277.971,346.639     286.028,337.313 299.359,325.104 306.83,311.48 311.078,295.219 308.441,284.672   "></polygon>		<polygon fill="#544D9A" points="307.367,286.164 311.57,298.04 302.57,321.102 281.009,343.976 268.072,351.288 243.698,368.162     236.573,376.037 235.635,370.6 240.036,361.961 254.575,348.556 271.259,331.101 283.285,320.977 289.821,302.54 287.671,293.052     300.133,287.541   "></polygon>		<polygon fill="#51AA7A" points="205.074,332.726 217.074,349.413 230.948,382.412 237.64,371.166 246.322,356.538     269.197,334.414 282.356,319.414 289.821,302.54 291.146,292.213 282.562,292.441 277.446,304.415 266.947,319.414     248.44,326.873 232.715,330.786 214.449,330.886   "></polygon>		<path fill="#E4221C" d="M164.7,218.377l0.736,9.523l-5.674,18.643l31.612,4.965l18.875,2.634l1.389-17.882l13.577-11.298    l26.315,0.304l2.217,12.462l2.067,12.564v9.929l20.163,2.634l5.162,15.642l1.424,13.943l30.285-9.07l24.679-16.937l29.572-29.817    l15.657-34.12l-0.464-5.314l-7.565-2.631l-38.806,5.888l-17.396,6.958l-12.846,10.98l-15.255-15.881    c0,0-27.474-15.078-53.596-9.229c-5.423,1.214-9.211,0.854-13.036,1.701c-14.598,3.232-18.571,6.285-18.571,6.285L164.7,218.377z"></path>		<circle fill="#F6B221" cx="196.016" cy="236.159" r="4.638"></circle>		<circle fill="#51AA7A" cx="208.983" cy="218.377" r="4.259"></circle>		<circle fill="#51AA7A" cx="263.285" cy="220.957" r="4.259"></circle>		<circle fill="#F6B221" cx="239.15" cy="208.977" r="4.738"></circle>		<circle fill="#F6B221" cx="274.999" cy="242.217" r="4.738"></circle>		<polygon fill="#E4221C" points="123.502,260.533 124.355,267.066 152.824,267.821 188.744,284.286 212.399,298.451     230.73,309.838 216.287,320.393 187.68,329.836 155.601,332.474 140.742,332.474 131.16,339.695 128.521,345.667 132.132,358.998     139.909,365.109 149.758,366.77 159.073,361.498 162.128,353.86 163.239,345.389 160.461,337.751 173.719,338.837     197.776,334.756 210.871,329.28 226.768,321.576 240.036,305.992 226.008,300.131 205.457,290.195 178.237,273.389     157.128,262.547 140.603,260.221   "></polygon>		<circle fill="#544D9A" cx="233.825" cy="246.549" r="25.079"></circle>		<circle fill="#E4C98F" cx="233.825" cy="248.623" r="15.997"></circle>		<polygon fill="#CD911C" points="241.562,271.255 263.619,296.514 272.039,312.168 280.222,300.131 282.356,282.877     279.659,265.204 271.802,262.242 255.813,260.221 248.677,266.434   "></polygon>		<polygon fill="#E4221C" points="242.511,273.389 261.485,291.889 271.259,314.065 256.885,324.62 248.44,326.873 252.828,314.54     252.989,300.131 246.898,281.809   "></polygon>		<path fill="#F6B221" d="M126.208,236.159c0,0-0.22,1.03-0.542,2.671c-1.119,5.7-3.475,18.773-2.164,21.704    c1.689,3.775,9.561,0,9.561,0l12.267-0.361l33.192,11.365l14.18,10.102l26.769,15.153l20.565,9.2l-3.247,5.953l-24.533,17.859    l22.549,1.082l15.153-4.149l4.416-22.787l-10.369-28.625l-4.69-4.329l-8.298,1.263l-11.365-5.825l-9.025-9.637l-1.628-5.15    l-49.963-3.948l6.859-17.041l0.36-10.619l-9.199-9.835l-10.336-3.199l-12.726-1.709l-10.042,9.863l-0.835,13.445L126.208,236.159z    "></path>		<g>			<path fill="#0B0C0C" d="M170.661,339.484c-2.869-0.227-5.401-0.427-8.251-0.653c0.491,1.282,0.919,2.294,1.268,3.333     c0.989,2.943,1.444,5.882,0.845,9.041c-0.586,3.086-1.635,5.883-3.442,8.422c-2.798,3.931-6.674,6.435-11.323,7.143     c-9.828,1.495-18.223-2.982-21.467-12.882c-2.93-8.941,1.948-19.043,10.579-22.457c2.341-0.926,4.737-1.599,7.3-1.442     c0.486,0.03,0.979-0.069,1.673-0.125c-0.647-1.428-1.319-2.684-1.796-4.01c-0.949-2.637-1.734-5.308-2.308-8.078     c-0.584-2.819-0.64-5.595-0.516-8.401c0.148-3.338,2.974-4.933,5.983-3.576c1.976,0.891,3.265,2.522,4.623,4.063     c1.448,1.643,2.685,3.474,4.142,5.109c2.92,3.276,5.894,6.506,8.917,9.686c0.898,0.945,2.017,1.689,3.079,2.463     c0.316,0.23,0.786,0.249,1.293,0.396c0.071-0.501,0.184-0.863,0.163-1.218c-0.193-3.219,2.792-5.606,6.568-4.275     c0.93,0.328,1.813,0.787,2.725,1.19c1.397-4.638,5.113-6.72,9.416-3.01c0.832-0.878,1.533-1.971,2.53-2.566     c0.962-0.575,2.231-0.636,3.624-0.989c-0.075-0.554-0.053-1.24-0.27-1.84c-0.685-1.893-0.599-3.843-0.46-5.775     c0.219-3.038,3.18-4.503,5.717-2.869c0.569,0.367,1.075,0.868,1.517,1.387c0.651,0.762,1.251,1.573,1.818,2.401     c2.356,3.438,5.493,5.78,9.502,6.982c2.9,0.87,2.911,0.946,5.458-0.76c2.084-1.396,4.126-2.855,6.142-4.347     c0.894-0.662,1.678-1.473,2.731-2.413c-3.359-1.768-6.512-3.35-9.589-5.068c-3.064-1.71-6.061-3.54-9.07-5.346     c-3.065-1.839-6.099-3.73-9.165-5.567c-2.997-1.796-6.017-3.552-8.982-5.3c-4.747,5.636-8.23,3.454-10.417-0.518     c-0.619,0.088-1.302,0.14-1.964,0.287c-2.994,0.664-4.762-0.106-6.215-2.746c-0.149-0.271-0.276-0.555-0.47-0.949     c-1.94,0.227-4.061,1.307-5.761-0.226c-1.452-1.309-2.567-2.992-3.948-4.649c-1.135,2.848-2.273,5.797-3.487,8.715     c-0.792,1.904-1.598,3.814-2.574,5.627c-0.958,1.777-3.309,2.357-5.044,1.3c-0.838-0.51-1.654-1.197-2.217-1.99     c-1.909-2.69-3.106-5.706-3.628-8.969c-0.372-2.321-0.682-4.652-1.23-7.056c-0.176,0.611-0.339,1.226-0.531,1.832     c-0.928,2.918-1.77,5.84-2.039,8.925c-0.287,3.298-0.72,6.589-1.258,9.855c-0.24,1.456-0.824,2.872-1.373,4.258     c-0.749,1.892-2.848,2.464-4.537,0.697c-2.6-2.72-4.524-5.845-6.059-9.236c-2.125-4.691-3.678-9.589-4.738-14.612     c-0.759-3.598-0.996-7.303-1.686-10.918c-1.024-5.367-0.651-10.77-0.556-16.151c0.052-2.974,0.689-5.948,1.202-8.898     c0.34-1.957,0.982-3.86,1.368-5.811c0.107-0.539-0.108-1.219-0.367-1.74c-1.766-3.55-2.361-7.408-2.526-11.26     c-0.131-3.052,0.729-6.019,2.369-8.742c2.513-4.171,5.594-7.708,10.042-9.863c1.521-0.737,3.106-1.344,4.86-1.236     c0.312,0.019,0.652,0.05,0.936-0.048c2.741-0.954,5.482-0.417,8.168,0.129c3.151,0.641,6.046,1.988,8.713,3.815     c3.003,2.057,5.414,4.648,7.238,7.794c0.157,0.27,0.346,0.524,0.54,0.77c0.072,0.091,0.203,0.134,0.418,0.268     c0.331-0.11,0.755-0.211,1.147-0.385c3.828-1.703,7.658-3.4,11.471-5.135c4.947-2.251,9.892-4.51,14.815-6.814     c4.698-2.199,9.367-4.46,14.047-6.695c0.169-0.081,0.32-0.247,0.493-0.269c2.198-0.284,2.607-1.686,2.445-3.623     c-0.219-2.61,0.596-5.069,1.363-7.52c1.432-4.575,3.849-8.539,7.253-11.924c1.193-1.187,2.566-2.036,4.142-2.501     c2.25-0.665,4.203-0.002,5.84,1.639c0.477,0.478,0.923,0.987,1.498,1.604c0.847-1.341,1.585-2.556,2.369-3.74     c1.122-1.696,2.595-3.025,4.269-4.184c3.34-2.314,8.143-0.365,8.715,3.678c0.033,0.237,0.107,0.468,0.224,0.961     c0.924-1.066,1.707-1.983,2.504-2.887c1.98-2.247,4.298-4.073,7.11-5.118c2.445-0.909,4.966-0.855,7.231,0.543     c1.565,0.966,2.411,2.517,2.39,4.549c0.862-0.15,1.228-0.749,1.596-1.262c1.307-1.825,3.08-3.124,4.891-4.366     c2.314-1.587,4.957-2.215,7.691-1.855c2.275,0.3,4.317,1.375,5.655,3.353c0.432,0.639,0.656,1.495,0.746,2.278     c0.379,3.33-0.481,6.464-1.691,9.523c-0.274,0.692-0.585,1.368-0.964,2.247c1.018-0.175,1.52-0.837,2.084-1.344     c3.448-3.108,7.334-5.457,11.783-6.823c3.093-0.95,6.264-1.207,9.484-0.938c2.92,0.244,6.746,4.187,6.816,7.373     c0.029,1.304,0.005,2.608,0.005,4.088c0.564-0.484,1.172-1.032,1.808-1.545c0.683-0.552,1.412-1.048,2.088-1.608     c4.669-3.873,9.86-6.875,15.416-9.273c3.704-1.598,7.623-2.414,11.558-3.168c0.427-0.082,0.876-0.071,1.315-0.07     c1.927,0.002,2.586,0.591,2.906,2.452c0.211,1.229,0.498,2.445,0.768,3.663c1.185,5.336,0.775,10.736,0.447,16.099     c-0.135,2.204-1.052,4.359-1.606,6.538c-0.088,0.347-0.139,0.703-0.247,1.264c1.235-0.196,2.317-0.341,3.389-0.543     c1.842-0.347,3.667-0.81,5.52-1.076c2.542-0.365,5.099-0.768,7.658-0.838c4.892-0.133,9.792-0.124,14.684-0.004     c2.114,0.052,4.228,0.468,6.323,0.825c1.233,0.21,1.726,0.84,1.585,2.149c-0.153,1.418-0.47,2.835-0.868,4.208     c-2.685,9.253-6.579,17.972-11.446,26.291c-7.351,12.565-16.624,23.55-27.265,33.401c-6.085,5.633-12.631,10.715-19.606,15.218     c-1.134,0.732-1.685,1.492-1.467,2.903c0.382,2.468,0.566,4.966,0.907,7.441c0.109,0.79,0.452,1.548,0.78,2.621     c1.032-0.621,1.91-1.154,2.792-1.678c1.303-0.775,2.161-0.442,2.442,1.044c0.521,2.754,0.858,5.547,1.482,8.275     c0.624,2.73,1.498,5.404,2.28,8.097c0.279,0.959,0.614,1.901,0.915,2.854c0.354,1.12,0.219,2.126-0.791,2.854     c-0.914,0.659-1.841,1.307-2.801,1.895c-0.766,0.469-0.972,1.024-0.695,1.89c0.683,2.136,1.249,4.311,1.957,6.438     c0.762,2.291,0.797,2.26-1.068,3.711c-1.423,1.108-2.715,2.416-4.236,3.358c-2.228,1.38-4.599,2.532-6.927,3.746     c-2.605,1.359-5.162,2.844-7.863,3.979c-4.091,1.719-8.247,3.31-12.451,4.731c-12.163,4.112-24.321,8.218-35.716,14.252     c-4.32,2.288-8.683,4.497-12.552,7.535c-6.649,5.22-12.665,11.047-17.381,18.118c-0.973,1.459-1.875,2.965-2.814,4.446     c-0.202,0.318-0.394,0.648-0.641,0.929c-0.895,1.019-1.875,0.973-2.647-0.124c-1.303-1.851-2.211-3.894-3.017-6.004     c-0.96-2.513-2.049-4.975-3.07-7.465c-1.281-3.123-2.45-6.296-3.844-9.367c-3.132-6.904-6.083-13.905-10.243-20.293     c-1.505-2.311-3.338-4.243-5.992-5.216c-1.463-0.536-2.938-1.05-4.438-1.464c-0.571-0.158-1.249-0.104-1.84,0.026     c-0.781,0.172-1.525,0.515-2.503,0.861c0,0.467-0.083,1.025,0.015,1.549c0.323,1.713,0.725,3.412,1.068,5.121     c0.121,0.607,0.334,1.278,0.182,1.832c-0.141,0.515-0.648,1.217-1.103,1.311c-2.864,0.593-5.759,1.041-8.644,1.532     c-1.967,0.335-3.935,0.665-5.903,0.989c-0.922,0.152-1.845,0.305-2.773,0.417c-1.241,0.15-2.492,0.223-3.729,0.399     c-1.31,0.186-1.931-0.09-2.227-1.359c-0.325-1.392-0.473-2.824-0.733-4.232C171.202,341.96,170.926,340.753,170.661,339.484z      M382.292,197.182c-1.589-0.765-2.121-0.901-4.138-0.92c-7.65-0.071-15.29-0.201-22.872,1.266     c-4.173,0.807-8.339,1.576-12.456,2.668c-5.221,1.385-10.286,3.194-15.201,5.375c-6.305,2.799-12.499,5.831-17.646,10.601     c-3.358,3.111-6.986,5.995-8.38,10.631c-0.485,1.613-0.847,3.264-1.246,4.903c-1.447,5.952,0.516,11.012,4.683,15.058     c3.333,3.236,7.403,4.015,11.298,1.302c1.118-0.778,2.049-1.839,3.01-2.824c1.177-1.205,1.778-2.572,0.949-4.257     c-0.133-0.27-0.119-0.613-0.167-0.923c-0.477-3.097-2.98-5.545-6.128-5.993c-1.375-0.195-2.145-0.697-2.172-1.416     c-0.03-0.763,0.921-1.547,2.192-1.722c2.148-0.295,4.091,0.083,5.735,1.662c1.847,1.774,3.034,3.976,4.222,6.182     c0.754,1.401,0.717,2.831,0.198,4.361c-1.323,3.904-3.935,6.662-7.456,8.6c-1.597,0.879-3.381,1.515-5.225,1.323     c-3.936-0.41-7.298-2.014-9.978-5.046c-2.002-2.266-3.231-4.904-4.184-7.701c-0.359-1.053-0.657-2.174-0.709-3.277     c-0.314-6.624,1.563-12.623,5.346-18.046c0.318-0.456,0.616-0.927,0.941-1.418c-0.194-0.328-0.315-0.62-0.51-0.849     c-3.506-4.131-7.339-7.906-11.833-10.979c-7.615-5.209-16.007-8.492-25.024-10.316c-7.042-1.425-14.14-2.119-21.316-1.885     c-2.251,0.073-4.497,0.378-6.74,0.623c-2.116,0.231-4.242,0.429-6.332,0.81c-3.259,0.593-6.519,1.219-9.727,2.034     c-3.392,0.862-6.799,1.762-10.063,3.005c-4.906,1.869-9.742,3.945-14.517,6.131c-4.264,1.953-8.387,4.21-12.606,6.265     c-2.25,1.096-4.553,2.09-6.861,3.06c-3.672,1.543-7.369,3.027-11.126,4.565c0.323,2.194,0.562,4.359,0.975,6.49     c0.505,2.601,0.022,5.167-0.395,7.665c-0.601,3.603-2.148,6.921-4.282,9.929c-0.222,0.313-0.331,0.707-0.536,1.159     c2.372,0.279,4.546,0.516,6.715,0.795c2.11,0.271,4.217,0.566,6.32,0.885c2.411,0.365,4.812,0.803,7.226,1.144     c2.352,0.332,4.723,0.535,7.073,0.877c3.903,0.567,7.797,1.201,11.695,1.804c1.421,0.22,2.838,0.478,4.266,0.636     c1.227,0.136,2.468,0.155,3.685,0.224c0.209-1.787,0.213-1.916-1.274-2.302c-1.136-0.295-1.534-0.967-1.58-2.01     c-0.019-0.439-0.067-0.885-0.014-1.317c0.373-3.033,0.631-6.058,1.705-8.995c1.988-5.436,5.452-9.662,9.985-13.109     c2.318-1.763,4.962-2.934,7.702-3.806c2.974-0.946,6.031-1.695,9.19-1.573c1.361,0.053,2.705,0.521,4.068,0.598     c2.489,0.14,4.724,1.092,6.978,1.982c3.072,1.213,5.689,3.124,8.102,5.367c5.622,5.224,8.296,11.778,8.836,19.308     c0.115,1.609,0.102,3.227,0.149,4.848c1.391,0.343,2.604,0.64,3.816,0.94c1.03,0.255,1.372,0.664,1.283,1.511     c-0.137,1.302-0.267,2.605-0.399,3.908c-0.151,1.493-0.511,1.834-2.029,1.838c-0.498,0.001-1.055,0.035-1.485-0.163     c-1.992-0.92-4.101-0.267-6.138-0.522c-0.152-0.019-0.341,0.26-0.802,0.637c2.125,0.381,3.924,0.759,5.741,1.02     c3.964,0.569,7.926,1.177,11.908,1.577c2.546,0.256,3.861,1.577,4.919,3.821c2.076,4.403,3.596,8.969,4.251,13.751     c0.414,3.024,0.168,6.138,0.212,9.212c0.012,0.857,0.002,1.714,0.002,2.759c0.917-0.116,1.704-0.004,2.232-0.322     c1.567-0.945,3.319-1.182,5.011-1.708c8.638-2.682,16.83-6.441,24.703-10.876c8.272-4.66,16.055-10.036,23.288-16.203     c11.045-9.419,20.717-20.034,28.609-32.261c4.782-7.408,8.754-15.203,11.778-23.471     C380.792,203.222,381.896,200.347,382.292,197.182z M215.112,328.679c1.036,0,1.641,0,2.246,0c4.325,0,8.656-0.132,12.975,0.04     c3.669,0.147,7.257-0.436,10.863-0.816c2.519-0.266,4.88-1.176,6.416-3.432c0.492-0.723,1.02-1.444,1.374-2.236     c1.391-3.107,2.324-6.337,2.323-9.778c0-3.013,0.25-6.057-0.103-9.029c-0.404-3.396-1.203-6.767-2.097-10.077     c-1.918-7.106-5.26-13.527-9.815-19.313c-0.749-0.951-1.551-1.585-2.891-0.994c-0.604,0.266-1.351,0.256-2.037,0.284     c-2.662,0.107-5.22-0.466-7.728-1.288c-7.753-2.54-13.111-7.613-16.012-15.244c-0.323-0.849-0.8-1.369-1.714-1.514     c-2.535-0.401-5.064-0.835-7.598-1.246c-1.298-0.21-2.596-0.42-3.899-0.589c-2.234-0.289-4.475-0.52-6.707-0.824     c-1.857-0.253-3.706-0.563-5.554-0.87c-2.219-0.369-4.43-0.788-6.652-1.138c-2.595-0.41-5.197-0.769-7.796-1.15     c-2.042-0.299-4.084-0.592-6.125-0.898c-1.851-0.277-3.705-0.536-5.546-0.869c-0.542-0.098-1.081-0.359-1.555-0.651     c-0.746-0.459-0.883-1.507-0.13-1.868c1.68-0.805,2.336-2.403,3.256-3.777c2.428-3.627,3.619-7.706,3.756-12.029     c0.087-2.755-0.478-5.485-1.34-8.115c-0.269-0.82-0.782-1.564-1.205-2.33c-0.753-1.362-1.368-2.836-2.314-4.05     c-3.267-4.191-7.393-6.936-12.783-7.876c-3.08-0.537-6.051-0.418-8.919,0.437c-5.524,1.647-9.379,5.382-11.838,10.551     c-0.423,0.888-0.798,1.889-0.839,2.853c-0.164,3.876-0.299,7.771,1.337,11.447c0.637,1.431,1.361,2.733,2.55,3.866     c2.05,1.953,4.574,2.888,7.148,3.563c2.595,0.68,5.137,0.341,6.769-2.297c0.46-0.743,1.06-1.398,1.562-2.117     c2.313-3.318,0.571-7.452-3.43-8.129c-0.777-0.131-1.458-0.347-1.773-1.147c0.766-1.216,0.766-1.216,1.816-1.286     c2.601-0.175,5.743,2.148,6.69,4.601c0.921,2.384,0.764,4.628-0.087,6.939c-1.443,3.916-4.59,6.213-8.171,6.674     c-4.342,0.558-8.299-0.747-11.8-3.397c-0.31-0.235-0.707-0.354-1.092-0.541c-1.781,6.959-1.759,13.85-1.474,20.874     c0.574-0.076,0.883-0.097,1.184-0.16c2.013-0.417,4.009-1.095,6.04-1.221c6.841-0.427,13.668-0.136,20.361,1.464     c6.225,1.488,12.246,3.631,17.944,6.551c11.67,5.979,22.877,12.772,34.029,19.654c6.027,3.72,11.999,7.53,18.085,11.151     c2.625,1.562,5.46,2.776,8.229,4.084c0.777,0.367,1.777,0.332,2.473,0.79c1.449,0.953,3.049,1.329,4.672,1.784     c1.279,0.359,2.454,1.087,3.796,1.707c-0.481,0.88-0.803,1.551-1.198,2.177c-3.579,5.682-8.464,10.066-14.015,13.701     c-3.394,2.223-7.002,4.12-10.507,6.174C215.968,327.922,215.726,328.178,215.112,328.679z M230.817,378.44     c0.324-0.621,0.432-0.828,0.539-1.035c2.05-3.945,3.903-8.009,6.201-11.803c2.802-4.626,6.518-8.577,10.31-12.422     c2.6-2.635,5.27-5.201,7.862-7.844c7.771-7.927,15.899-15.503,23.078-24.009c5.391-6.387,8.259-13.792,9.486-21.921     c0.318-2.105,0.16-4.246-0.624-6.355c-0.844,0.096-1.641,0.238-2.442,0.265c-1.086,0.037-1.717,0.483-2.011,1.579     c-0.485,1.807-1.004,3.615-1.662,5.366c-3.227,8.584-8.729,15.428-16.076,20.848c-7.59,5.599-16.203,8.662-25.447,9.909     c-3.646,0.492-7.389,0.329-11.088,0.346c-3.072,0.014-6.143-0.191-9.216-0.216c-3.898-0.032-7.688,0.804-11.478,1.591     c-0.203,0.042-0.367,0.277-0.646,0.501c0.451,0.397,0.835,0.699,1.176,1.044c0.881,0.891,1.915,1.691,2.579,2.726     c1.621,2.527,3.136,5.129,4.573,7.767c4.804,8.814,8.386,18.184,12.362,27.374C229.132,374.086,229.868,376.065,230.817,378.44z      M125.181,262.431c0,0.775-0.05,1.332,0.01,1.877c0.166,1.516,0.4,1.561,1.925,1.306c2.402-0.401,4.824-0.726,7.251-0.921     c1.809-0.145,3.641,0.023,5.459-0.046c4.367-0.165,8.64,0.587,12.848,1.535c5.682,1.281,11.201,3.185,16.42,5.786     c4.709,2.347,9.308,4.922,13.905,7.485c11.778,6.566,23.131,13.836,34.566,20.97c4.773,2.978,9.543,6.013,15.037,7.597     c0.365,0.105,0.864,0.441,0.918,0.74c0.055,0.3-0.292,0.783-0.593,1.022c-2.499,1.985-4.949,4.046-7.568,5.863     c-3.292,2.284-6.617,4.565-10.13,6.476c-5.399,2.936-11.184,4.962-17.158,6.465c-4.425,1.114-8.866,2.086-13.406,2.577     c-0.372,0.04-0.737,0.141-1.106,0.208c-2.148,0.388-4.294,0.794-6.447,1.153c-1.971,0.329-3.976,0.496-5.921,0.933     c-2.751,0.618-5.475,0.36-8.225,0.128c-1.229-0.104-2.477-0.009-3.716,0.015c-1.309,0.026-2.654,0.286-3.921,0.075     c-4.199-0.7-8.317-1.471-12.645-0.568c-5.53,1.153-11.3,6.486-12.047,12.112c-0.451,3.396-0.377,6.832,1.268,10.095     c3.505,6.952,10.804,10.033,18.162,8.299c3.038-0.716,5.563-2.507,7.653-4.887c4.936-5.622,5.105-12.706,1.282-18.775     c-0.309-0.49-0.897-1.063-1.409-1.121c-2.106-0.24-4.121-0.942-6.302-0.877c-3.867,0.115-6.6,1.753-8.062,5.327     c-0.687,1.68-1.113,3.437-1.01,5.308c0.132,2.396,1.189,3.722,3.565,4.076c1.428,0.213,2.503-0.585,3.538-1.439     c0.935-0.772,0.344-1.509,0.108-2.349c-0.139-0.495,0.059-1.289,0.411-1.651c0.258-0.265,1.069-0.191,1.536-0.013     c1.141,0.435,1.794,1.335,1.885,2.58c0.113,1.556-0.536,2.844-1.625,3.856c-2.351,2.183-4.965,2.814-8.135,1.679     c-2.645-0.947-4.021-2.508-4.378-5.696c-0.374-3.334,0.495-6.515,2.223-9.349c2.163-3.545,5.448-5.345,9.634-5.048     c2.979,0.211,5.938,0.718,8.906,1.096c0.123,0.016,0.241,0.073,0.365,0.092c1.108,0.174,2.213,0.454,3.326,0.49     c2.132,0.069,4.272,0.073,6.401-0.034c2.815-0.142,5.627-0.376,8.433-0.649c2.171-0.211,4.342-0.473,6.491-0.841     c1.774-0.304,3.519-0.783,5.272-1.207c3.031-0.734,6.121-1.296,9.071-2.276c4.142-1.377,8.247-2.918,12.242-4.674     c3.544-1.558,7.028-3.321,10.333-5.333c3.092-1.883,5.927-4.192,8.851-6.347c2.86-2.108,5.071-4.848,7.231-7.623     c0.277-0.356,0.349-0.872,0.536-1.367c-0.799-0.307-1.422-0.617-2.081-0.788c-4.621-1.201-9.013-3.034-13.173-5.306     c-5.991-3.272-11.832-6.82-17.724-10.272c-8.655-5.07-17.26-10.229-25.966-15.209c-4.404-2.519-8.891-4.934-13.51-7.021     c-5.241-2.368-10.684-4.285-16.431-5.111c-2.909-0.418-5.814-0.963-8.74-1.139c-3.126-0.188-6.277-0.087-9.412,0.036     C129.405,261.828,127.423,262.175,125.181,262.431z M237.64,371.166c0.11,0.065,0.219,0.13,0.329,0.195     c0.77-0.814,1.545-1.624,2.31-2.442c6.295-6.734,13.279-12.579,21.554-16.77c2.067-1.047,4.217-1.983,6.134-3.263     c4.166-2.781,8.311-5.613,12.275-8.67c8.077-6.23,15.455-13.187,21.227-21.687c4.281-6.304,7.491-13.013,7.805-20.817     c0.16-3.979-0.309-7.831-1.907-11.549c-5.448,2.032-10.809,4.031-16.221,6.049c0.167,1.356,0.376,2.648,0.478,3.948     c0.262,3.357-0.515,6.558-1.279,9.809c-1.3,5.534-3.623,10.557-7.06,15.007c-2.716,3.516-5.649,6.89-8.733,10.089     c-5.833,6.051-11.823,11.951-17.785,17.876c-5.293,5.259-10.793,10.321-15.327,16.291     C240.014,367.11,238.534,368.959,237.64,371.166z M243.012,272.038c13.539,9.898,23.511,22.208,29.008,38.324     c0.762-1.006,1.375-1.758,1.927-2.553c2.895-4.166,4.818-8.775,6.092-13.661c0.896-3.434,0.802-6.953,0.85-10.468     c0.076-5.486-1.44-10.598-3.122-15.743c-0.881-2.693-2.599-3.405-5.008-3.525c-0.188-0.009-0.379,0.009-0.564-0.018     c-2.351-0.336-4.701-0.676-7.051-1.02c-2.475-0.362-4.961-0.667-7.421-1.118c-1.704-0.312-2.821,0.291-3.828,1.639     c-2.494,3.34-5.771,5.711-9.582,7.37C243.924,271.434,243.576,271.699,243.012,272.038z M310.116,284.7     c0.114,0.463,0.172,0.759,0.259,1.046c0.597,1.969,1.487,3.9,1.745,5.911c0.701,5.458,0.419,10.881-1.43,16.144     c-2.248,6.399-5.713,12.104-9.964,17.338c-3.883,4.781-8.24,9.112-12.949,13.085c-1.523,1.285-3.048,2.568-4.922,4.146     c0.656-0.158,0.882-0.193,1.095-0.266c4.253-1.473,8.473-3.048,12.763-4.407c7.578-2.4,15.07-5.014,22.304-8.322     c1.455-0.665,2.832-1.5,4.32-2.297c-0.385-0.991-0.665-1.746-0.97-2.49c-0.499-1.215-1.178-2.383-1.493-3.643     c-1.045-4.181-1.962-8.394-2.927-12.595c-0.364-1.582-0.74-3.161-1.082-4.748c-0.514-2.385-1.045-4.767-1.491-7.165     c-0.571-3.069-1.042-6.157-1.604-9.228c-0.221-1.206-0.569-2.389-0.922-3.84C311.885,283.839,311.027,284.257,310.116,284.7z      M332.474,198.492c1.028,0.09,2.094,0.127,3.194-0.297c2.095-0.807,4.217-1.538,6.494-1.683c1.133-0.072,1.832-0.696,2.046-1.848     c0.238-1.286,0.456-2.581,0.782-3.846c0.961-3.723,1.367-7.503,1.22-11.339c-0.125-3.255-0.605-6.463-1.366-9.634     c-0.212-0.882-0.688-1.12-1.496-0.935c-0.672,0.153-1.335,0.364-2.015,0.456c-3.627,0.491-7.06,1.646-10.369,3.14     c-5.745,2.594-10.869,6.187-15.776,10.103c-0.716,0.571-1.36,1.232-2.255,2.052c0.567,0.071,0.803,0.159,1.013,0.118     c1.404-0.277,2.825-0.503,4.198-0.894c2.691-0.766,5.323-0.602,7.952,0.247c3.738,1.207,6.75,5.147,6.768,9.058     C332.871,194.908,332.619,196.628,332.474,198.492z M251.426,324.843c0.275,0.012,0.408,0.055,0.51,0.017     c6.322-2.357,11.828-6,16.722-10.611c0.665-0.626,0.894-1.311,0.576-2.197c-0.591-1.649-1.032-3.361-1.73-4.961     c-4.561-10.454-11.311-19.335-19.635-27.065c-0.274-0.254-0.66-0.388-1.168-0.678c0.094,0.446,0.089,0.646,0.174,0.797     c2.608,4.669,4.649,9.574,5.861,14.785c0.692,2.976,1.367,5.988,1.636,9.02c0.282,3.176,0.195,6.403,0.025,9.595     c-0.108,2.037-0.534,4.083-1.051,6.064C252.893,321.352,252.114,323.009,251.426,324.843z M212.42,250.75     c0.301,1.768,0.567,3.338,0.839,4.907c0.021,0.122,0.066,0.245,0.128,0.353c1.117,1.951,2.047,4.045,3.394,5.821     c4.575,6.029,11.002,8.406,18.32,8.825c0.677,0.039,1.391-0.043,2.043-0.225c1.746-0.489,3.496-0.989,5.194-1.619     c3.532-1.311,6.604-3.35,8.905-6.359c1.126-1.472,1.969-3.16,3.045-4.92c-1.189-0.881-0.981-2.245-0.985-3.555     c-0.005-1.756,0.119-3.522-0.03-5.265c-0.159-1.857-0.313-3.783-0.921-5.521c-2.207-6.316-6.308-10.835-12.846-12.939     c-4.082-1.314-8.091-1.25-12.138,0.114c-4.602,1.551-8.062,4.518-10.516,8.61c-1.849,3.083-2.997,6.425-2.571,10.143     c0.044,0.387-0.292,0.925-0.612,1.216C213.382,250.595,212.874,250.612,212.42,250.75z M322.122,278.166     c-2.032,1.194-3.665,2.096-5.221,3.115c-0.328,0.215-0.504,0.849-0.527,1.302c-0.034,0.676,0.088,1.37,0.219,2.042     c0.371,1.897,0.804,3.783,1.167,5.681c0.34,1.776,0.593,3.569,0.937,5.344c0.357,1.84,0.795,3.664,1.167,5.501     c0.521,2.572,0.961,5.161,1.534,7.721c0.545,2.432,1.346,4.812,1.802,7.258c0.612,3.282,1.814,6.336,3.135,9.562     c1.573-0.93,3.075-1.755,4.325-3.011c0.632-0.634,0.937-1.149,0.632-2.122c-0.611-1.956-1.043-3.971-1.498-5.973     c-0.98-4.312-1.922-8.632-2.892-12.946c-0.286-1.272-0.608-2.537-0.922-3.803c-0.359-1.449-0.752-2.889-1.084-4.344     c-0.402-1.761-0.79-3.527-1.121-5.303c-0.342-1.837-0.607-3.689-0.909-5.534C322.648,281.315,322.422,279.973,322.122,278.166z      M306.319,173.777c-0.524,0.439-1.11,0.893-1.653,1.394c-3.087,2.847-6.207,5.659-9.232,8.57     c-3.666,3.529-6.998,7.352-9.696,11.69c-0.348,0.559-0.57,1.196-0.929,1.965c1.011,0.489,1.851,0.874,2.671,1.299     c0.834,0.433,1.652,0.899,2.47,1.362c1.656,0.937,1.726,1.014,3.088-0.296c2.256-2.172,4.371-4.489,6.614-6.674     c2.71-2.64,5.099-5.544,7.046-8.769c0.958-1.587,1.671-3.367,2.22-5.144C309.577,177.045,308.549,175.084,306.319,173.777z      M170.916,330.799c-0.622-0.518-0.79-0.722-1.006-0.83c-4.705-2.334-8.143-6.218-11.854-9.755     c-1.125-1.073-2.053-2.366-2.994-3.616c-1.621-2.153-3.147-4.378-4.788-6.515c-0.481-0.627-1.15-1.183-1.848-1.554     c-1.05-0.557-1.713-0.2-2.18,0.919c-0.704,1.685-0.737,3.404-0.349,5.166c0.201,0.914,0.301,1.85,0.471,2.772     c0.134,0.727,0.252,1.464,0.469,2.168c0.787,2.557,1.291,5.223,2.83,7.5c0.128,0.19,0.081,0.49,0.148,0.729     c0.528,1.869,1.856,2.864,3.755,2.922c1.438,0.045,2.875,0.154,4.307,0.285c1.057,0.097,2.103,0.366,3.159,0.396     c2.196,0.064,4.397,0.073,6.592-0.004C168.593,331.352,169.548,331.054,170.916,330.799z M305.366,214.604     c0.414-0.173,0.666-0.23,0.862-0.367c2.36-1.652,4.652-3.41,7.081-4.954c3.951-2.511,7.719-5.34,12.049-7.225     c0.332-0.144,0.726-0.329,0.903-0.613c1.226-1.959,2.713-3.8,3.285-6.092c0.512-2.053-0.154-3.891-1.233-5.702     c-0.505,0.224-0.871,0.328-1.173,0.529c-2.446,1.631-4.951,3.187-7.303,4.944c-4.116,3.075-8.177,6.23-12.18,9.45     c-1.653,1.33-3.131,2.887-4.616,4.411c-0.334,0.342-0.658,1.153-0.483,1.454C303.395,211.881,304.408,213.22,305.366,214.604z      M300.02,207.582c3.482-4.392,8.146-7.178,12.403-10.438c4.286-3.283,8.837-6.221,13.372-9.381     c-1.236-0.865-2.587-1.1-3.939-1.06c-1.366,0.04-2.721,0.374-4.088,0.496c-4.49,0.4-8.163,2.697-11.695,5.178     c-4.017,2.821-7.273,6.516-10.758,9.941c-0.206,0.202-0.311,0.507-0.521,0.863C296.509,204.624,298.167,206.021,300.02,207.582z      M149.189,269.084c-0.255,1.079-0.626,1.972-0.651,2.874c-0.116,4.186-0.383,8.378,0.626,12.523     c0.601,2.468,1.657,4.709,2.991,6.832c0.78,1.242,1.708,1.245,2.444-0.01c0.63-1.073,1.183-2.212,1.607-3.381     c1.814-5.004,3.852-9.888,7.071-14.189c0.061-0.082,0.02-0.24,0.042-0.649C158.867,271.273,154.292,269.652,149.189,269.084z      M274.37,193.222c0.261,0.222,0.382,0.393,0.544,0.452c1.884,0.683,3.772,1.356,5.663,2.017c0.892,0.312,1.505,0.053,2.038-0.79     c1.169-1.849,2.386-3.675,3.694-5.428c4.459-5.98,10.217-10.654,15.757-15.546c0.242-0.214,0.42-0.501,0.813-0.978     c-0.924,0-1.551-0.085-2.147,0.014c-4.059,0.669-7.848,2.027-11.28,4.361c-5.782,3.931-10.356,9.046-14.475,14.615     C274.697,192.316,274.564,192.803,274.37,193.222z M279.97,165.257c-6.254,8.021-12.311,16.003-16.194,25.633     c0.751,0.25,1.259,0.463,1.787,0.585c1.22,0.282,2.449,0.53,3.677,0.775c1.369,0.273,1.521,0.216,2.262-1.019     c1.741-2.903,3.55-5.771,5.164-8.743c1.403-2.583,2.62-5.271,3.835-7.951c0.779-1.72,1.169-3.573,1.241-5.461     C281.794,167.688,281.706,166.293,279.97,165.257z M127.349,277.548c1.089-0.26,1.995-0.457,2.892-0.693     c3.139-0.825,6.289-0.742,9.429-0.071c1.206,0.258,1.551,0.158,2.01-0.975c0.491-1.211,0.964-2.432,1.503-3.622     c0.534-1.177,1.141-2.321,1.714-3.476c-2.659-1.337-14.909-1.219-19.175,0.204C126.085,271.735,126.395,274.605,127.349,277.548z      M192.381,336.286c-6.066,1.16-12.154,2.396-18.662,2.551c0.395,2.43,0.75,4.611,1.115,6.856c1.73,0.165,3.304,0.197,4.933-0.212     c1.871-0.47,3.807-0.702,5.726-0.95c2.292-0.297,4.596-0.505,6.896-0.743c0.636-0.066,1.132-0.314,1.095-1.022     C193.371,340.599,193.609,338.369,192.381,336.286z M277.28,164.668c-1.598-0.177-2.779-0.163-3.83,0.524     c-1.517,0.992-3.119,1.898-4.473,3.082c-3.215,2.812-5.402,6.383-7.072,10.287c-1.059,2.475-2.154,4.935-3.209,7.412     c-0.553,1.297-1.054,2.616-1.579,3.926c2.913,1.098,3.183,0.958,4.427-1.403c1.749-3.32,3.396-6.715,5.422-9.862     c2.778-4.315,5.696-8.557,9.232-12.321C276.565,165.923,276.8,165.408,277.28,164.668z M260.055,166.571     c-0.672,0.919-1.047,1.403-1.391,1.909c-0.738,1.087-1.475,2.176-2.185,3.281c-1.726,2.684-3.598,5.291-5.106,8.093     c-1.358,2.524-2.355,5.248-3.424,7.919c-0.654,1.635-0.375,2.035,1.311,2.209c0.872,0.09,1.757,0.055,2.631,0.133     c1.042,0.093,1.625-0.415,2.014-1.319c1.982-4.597,3.947-9.201,5.986-13.772c0.981-2.199,1.124-4.478,0.929-6.808     C260.785,167.789,260.447,167.388,260.055,166.571z M138.886,283.718c-2.639-0.143-5.248-0.165-7.86,0.032     c-0.235,0.018-0.464,0.176-0.687,0.286c-1.113,0.547-1.237,0.739-0.879,1.893c1.269,4.081,3.007,7.956,5.365,11.525     c0.563,0.851,1.177,1.771,2.365,2.152c0.159-0.315,0.381-0.569,0.413-0.846c0.291-2.54,0.955-5.033,0.804-7.633     c-0.06-1.037,0.233-2.103,0.425-3.145C139.081,286.629,139.231,285.287,138.886,283.718z M232.596,190.815     c0.992-0.14,1.915-0.4,2.829-0.371c1.533,0.049,2.255-0.736,2.7-2.063c0.595-1.772,1.285-3.512,1.896-5.278     c1.285-3.71,1.871-7.521,1.567-11.451c-0.06-0.771-0.189-1.489-1.117-1.689c-0.178,0.165-0.356,0.266-0.441,0.419     c-2.769,4.984-5.135,10.153-6.837,15.598C232.739,187.433,232.074,188.93,232.596,190.815z M219.299,193.278     c1.986-0.464,3.501-0.755,4.967-1.206c0.35-0.108,0.672-0.72,0.772-1.155c0.598-2.608,0.977-5.277,1.728-7.837     c0.608-2.072,0.279-3.969-0.394-5.859c-0.39-1.097-0.996-2.18-2.587-2.021C221.529,180.891,219.794,186.673,219.299,193.278z      M198.805,308.507c-0.197,0.849-0.52,1.566-0.49,2.267c0.051,1.18,0.132,2.425,0.546,3.511c0.976,2.566,2.13,5.066,3.271,7.566     c0.252,0.551,0.738,1,1.138,1.477c0.42,0.5,0.917,0.541,1.52,0.283c2.129-0.911,4.28-1.77,6.405-2.69     c0.47-0.204,0.867-0.576,1.527-1.027c-0.624-0.266-0.944-0.428-1.281-0.542c-3.045-1.03-5.634-2.741-7.663-5.236     c-0.987-1.213-1.853-2.526-2.775-3.792C200.498,309.63,200.118,308.797,198.805,308.507z M241.085,189.835     c2.638,0.63,2.955,0.474,3.624-1.689c1.241-4.017,2.776-7.922,5.036-11.471c1.713-2.69,3.688-5.212,5.534-7.817     c0.455-0.642,0.862-1.317,1.292-1.977c-0.086-0.119-0.172-0.239-0.258-0.358c-0.549,0.187-1.128,0.313-1.642,0.57     c-3.774,1.888-6.458,4.861-8.494,8.503c-1.636,2.928-2.392,6.171-3.465,9.302C242.169,186.484,241.661,188.084,241.085,189.835z      M329.823,290.15c-2.045,0.551-2.522,0.992-2.291,2.25c0.427,2.326,0.883,4.649,1.417,6.952c0.601,2.592,1.283,5.167,1.973,7.737     c0.169,0.63,0.512,1.213,0.803,1.882c0.573-0.281,0.976-0.446,1.347-0.667c1.488-0.886,1.471-0.993,0.966-2.635     c-0.84-2.731-1.658-5.471-2.377-8.236c-0.515-1.979-0.834-4.009-1.282-6.007C330.277,290.973,330.006,290.558,329.823,290.15z      M219.891,177.55c-0.125-0.055-0.25-0.111-0.375-0.166c-4.512,5.059-7.263,10.846-7.365,18.108     c1.26-0.396,2.279-0.657,3.243-1.052c0.33-0.136,0.683-0.58,0.747-0.934c0.278-1.536,0.406-3.099,0.677-4.637     c0.314-1.78,0.629-3.568,1.109-5.306C218.488,181.532,219.228,179.552,219.891,177.55z M167.351,274.772     c-0.297,0.331-0.557,0.525-0.691,0.785c-0.923,1.783,0.126,4.989,1.931,5.89c0.322,0.161,0.741,0.319,1.066,0.25     c1.517-0.324,2.827-0.993,3.55-2.482c0.356-0.733,0.279-1.345-0.489-1.738C170.947,276.571,169.166,275.685,167.351,274.772z      M191.262,326.91c-0.978-1.658-2.048-3.246-3.49-4.533c-0.437-0.39-1.066-0.667-1.647-0.772c-0.943-0.17-1.696,0.309-1.787,1.225     c-0.19,1.904-0.452,3.872,1.104,5.521C187.345,327.837,189.444,328.278,191.262,326.91z M228.531,190.872     c0.079,0.015,0.158,0.029,0.237,0.044c1.127-3.502,2.056-7.084,3.437-10.482c1.413-3.477,3.271-6.774,4.995-10.274     c-0.329,0.083-0.467,0.083-0.562,0.148c-0.205,0.141-0.388,0.314-0.58,0.474c-2.438,2.032-3.714,4.824-4.966,7.626     c-0.302,0.676-0.691,1.402-0.693,2.106c-0.006,2.725-0.657,5.312-1.392,7.899C228.779,189.213,228.685,190.051,228.531,190.872z      M200.015,325.035c-1.197-1.544-2.095-2.817-3.115-3.983c-0.825-0.942-2.086-1.166-2.858-0.69     c-0.802,0.494-1.174,1.942-0.668,3.062c0.477,1.054,1.088,2.048,1.656,3.098C196.679,326.031,198.209,325.574,200.015,325.035z      M180.983,329.039c0.017-0.24,0.1-0.457,0.031-0.598c-0.994-2.025-2.654-3.272-4.785-3.861c-0.386-0.107-0.988,0.146-1.339,0.423     c-0.897,0.709-0.932,2.286-0.191,3.836c0.485,1.014,1.177,1.332,2.487,1.065C178.4,329.656,179.602,329.356,180.983,329.039z      M134.99,278.297c-1.803,0.369-3.933,0.772-6.045,1.252c-0.898,0.204-1.219,0.786-0.95,1.48c0.303,0.781,0.859,0.663,1.541,0.497     c2.234-0.543,4.461-1.224,6.805-1.008c0.926,0.086,1.839,0.359,2.764,0.396c0.403,0.016,0.822-0.347,1.233-0.537     c-0.21-0.407-0.396-0.83-0.642-1.213c-0.086-0.134-0.315-0.217-0.491-0.244C137.913,278.718,136.62,278.535,134.99,278.297z      M176.228,279.373c-0.229,1.347-0.472,2.321-0.544,3.308c-0.101,1.38,0.601,2.357,1.716,2.524     c1.555,0.232,2.837-0.376,3.895-1.449c0.593-0.601,0.506-1.259-0.249-1.709C179.56,281.161,178.023,280.361,176.228,279.373z      M185.241,284.342c-1.271,1.927-1.103,3.183,0.335,4.072c1,0.619,1.995,0.072,3.123-1.876     C187.585,285.831,186.461,285.117,185.241,284.342z"></path>			<path fill="#0B0C0C" d="M245.629,208.846c0.129,3.082-2.166,5.88-5.934,6.563c-0.244,0.044-0.515,0.077-0.749,0.018     c-1.794-0.453-3.399-1.327-4.693-2.611c-1.094-1.085-1.595-2.522-1.587-4.11c0.013-2.52,2.146-5.874,5.519-6.168     c3.272-0.285,5.549,0.87,6.843,3.79C245.372,207.104,245.436,208.003,245.629,208.846z M235.883,208.733     c-0.013,2.053,1.052,3.311,2.777,3.281c2.15-0.038,3.628-1.324,3.668-3.192c0.039-1.8-1.519-3.539-3.163-3.531     C237.477,205.298,235.895,206.957,235.883,208.733z"></path>			<path fill="#0B0C0C" d="M263.435,227.199c-3.291-0.035-6.468-2.484-6.44-6.248c0.027-3.493,2.224-6.199,6.152-6.269     c3.706-0.066,6.298,2.571,6.425,6.422C269.666,223.909,266.479,227.629,263.435,227.199z M263.246,218.061     c-1.761-0.004-3.174,1.374-3.125,3.049c0.044,1.53,1.39,2.833,2.834,2.932c1.692,0.115,3.411-1.842,3.411-3.123     C266.366,219.421,264.897,218.064,263.246,218.061z"></path>			<path fill="#0B0C0C" d="M189.914,236.865c-0.022-3.521,2.456-6.141,5.871-6.206c3.555-0.067,6.288,2.516,6.331,5.985     c0.043,3.449-2.669,6.328-6.001,6.371C192.761,243.059,189.936,240.257,189.914,236.865z M193.099,236.753     c-0.026,1.759,1.188,3.089,2.792,3.058c1.424-0.027,3.013-1.602,3.044-3.016c0.033-1.523-1.24-2.79-2.843-2.828     C194.223,233.924,193.125,234.944,193.099,236.753z"></path>			<path fill="#0B0C0C" d="M281.138,242.125c-0.023,3.329-3.001,6.376-6.31,6.137c-3.656-0.263-5.983-2.202-5.968-5.718     c0.016-3.778,2.042-6.404,6.091-6.386C279.101,236.177,280.704,238.814,281.138,242.125z M274.824,239.28     c-1.502,0.055-2.954,1.407-2.874,2.676c0.111,1.758,1.506,3.161,3.12,3.138c1.416-0.02,2.985-1.593,2.912-2.92     C277.899,240.669,276.323,239.225,274.824,239.28z"></path>			<path fill="#0B0C0C" d="M208.828,212.317c3.528-0.31,6.212,2.823,6.233,5.898c0.021,3.123-2.451,6.225-6.2,6.243     c-3.119,0.016-5.986-3.032-5.954-6.273C202.94,214.713,205.369,212.306,208.828,212.317z M206.089,218.393     c0.003,1.703,1.055,2.797,2.75,2.859c1.382,0.05,3.018-1.588,3.02-3.024c0.002-1.577-1.236-2.746-2.912-2.75     C207.109,215.474,206.085,216.518,206.089,218.393z"></path>			<path fill="#0B0C0C" d="M192.716,267c-0.294-3.39,4.095-5.105,6.72-4.223c1.946,0.654,3.864,1.396,5.821,2.016     c0.818,0.259,1.703,0.306,2.559,0.446c0.552,0.09,1.137,0.091,1.651,0.282c0.667,0.248,0.948,0.806,0.684,1.519     c-0.13,0.35-0.332,0.673-0.502,1.008c-1.456,2.872-7.511,5.909-10.678,4.822c-1.109-0.381-2.367-0.416-3.39-0.937     C193.725,270.987,192.749,269.35,192.716,267z M205.621,267.998c-0.029-0.155-0.058-0.311-0.087-0.466     c-1.826-0.579-3.649-1.17-5.482-1.728c-0.596-0.182-1.212-0.322-1.83-0.405c-1.073-0.145-2.274,0.483-2.491,1.244     c-0.277,0.971,0.43,2.32,1.479,2.73c0.638,0.25,1.295,0.499,1.966,0.611C201.683,270.403,203.741,269.44,205.621,267.998z"></path>			<path fill="#0B0C0C" d="M227.039,293.943c-1.593,0.152-2.905-0.595-3.968-1.859c-2.103-2.498-2.644-5.43-2.338-8.586     c0.06-0.621,0.091-1.259,0.264-1.852c0.224-0.766,0.457-1.576,0.898-2.222c0.82-1.201,1.503-1.176,2.614-0.258     c1.151,0.951,2.385,1.8,3.559,2.724c0.979,0.771,1.947,1.561,2.879,2.388c1.487,1.32,1.816,3.138,1.764,4.961     C232.633,291.958,230.196,293.93,227.039,293.943z M223.895,283.108c-0.779,2.329-0.022,5.683,1.566,7.182     c0.674,0.636,1.445,0.938,2.391,0.671c2.102-0.593,2.678-2.422,1.129-4.192C227.595,285.186,225.806,284.058,223.895,283.108z"></path>			<path fill="#0B0C0C" d="M233.704,266.416c-7.508,0.441-17.955-7.371-17.573-17.845c0.355-9.73,7.962-17.669,17.695-17.549     c9.858,0.122,17.558,7.161,17.702,17.512C251.668,258.561,244.24,266.19,233.704,266.416z M233.585,263.309     c0.439,0,0.879,0.022,1.317-0.003c4.277-0.247,7.914-1.677,10.232-5.547c0.125-0.209,0.342-0.36,0.488-0.558     c0.544-0.739,1.17-1.436,1.597-2.239c1.309-2.463,1.442-5.134,1.304-7.864c-0.131-2.596-1.031-4.929-2.532-6.951     c-4.25-5.721-10.399-7.732-17.33-5.365c-5.195,1.774-8.252,5.587-9.405,11.007c-0.433,2.036-0.055,3.966-0.004,5.954     c0.059,2.306,0.942,3.994,2.349,5.727C224.726,261.321,228.559,263.482,233.585,263.309z"></path>		</g>	</g>	<polygon fill="#F6B221" points="163.491,70.38 162.999,74.704 165.571,84.392 172.085,99.99 175.095,106.668 179.419,110.718    185.439,109.788 204.635,97.887 204.447,96.392 185.869,95.824 184.837,93.039 186.424,92.383 195.266,84.564 196.153,83.1    175.642,79.849 177.652,76.355 179.064,75.728 191.373,66.599 191.941,65.036 174.217,66.562 165.733,68.913  "></polygon>	<path fill="#F6B221" d="M233.725,50.81l-2.212,2.58l-1.827,5.181l0.38,29.306l1.226,5.101l3.539,2.433l22.78-0.885l4.954-3.866   c0,0,2.929-2.807,2.871-4.003c-0.058-1.197-6.819-1.524-6.819-1.524l-4.004-7.939l-4.325,5.685l-6.467,3.494l1.858-24.678   l2.836-0.027l0.518,3.751l10.698-0.139l3.745-4.955l0.145-0.941l-11.4-9.285l-11.001,3.865L233.725,50.81z"></path>	<path fill="#F6B221" d="M310.349,57.449l-3.994,2.06l-2.184,3.433l-3.558,8.675l-6.741,15.728l-2.247,7.115l0.811,3.994   l4.556,2.497l23.779,5.867l3.143-0.306c0,0,3.197-3.664,4.16-5.623c0.963-1.959-16.789-1.81-16.789-1.81l-4.556-5.43l10.735-21.907   l3.05,1.113l-8.23,22.479l3.308,1.685l4.182,0.125l9.549-30.645l-13.606-4.931L310.349,57.449z"></path>	<polygon fill="#F6B221" points="384.272,111.311 378.668,117.493 389.063,125.271 395.998,125.642 395.345,110.986    387.792,103.358 380.837,93.785 377.097,93.785 372.759,95.729 362.289,106.817 360.644,110.163 360.116,113.378 360.419,114.127    355.259,115.548 352.492,117.642 349.051,122.055 349.051,126.168 353.314,130.805 375.573,143.958 380.537,142.023    383.305,132.824 381.061,123.326 371.862,114.277 380.612,107.172 381.734,109.266  "></polygon>	<polygon fill="#F6B221" points="99.334,117.427 101.789,124.863 105.858,129.002 113.33,121.778 135.993,146.35 144.575,131.998    143.834,130.342 125.692,110.672 128.154,108.612 130.814,99.729 130.665,98.024 115.24,104.944  "></polygon>	<g>		<g>			<path fill="#E4221C" d="M121.79,106.101l22.044,24.241l-9.378,8.61l-21.841-23.79c-0.57,0.382-1.231,1.129-1.384,1.271     c-3.113,2.858-4.227,3.881-7.263,6.669l-3.635-3.959c0.652,2.021,1.462,4.678,1.706,5.021l3.669,3.997l7.686-7.058l22.335,24.328     l-0.379-4.964l9.224-8.469l0.573,6.487l-9.531,8.751l-22.407-24.404l-7.609,6.987l-4.411-4.804     c-0.565-0.615-2.261-5.858-3.469-8.715l27.019-24.805l5.925,6.53L121.79,106.101z M131.023,106.052l-3.881,3.565l-3.285-3.501     l6.957-6.387C131.059,101.771,130.941,103.649,131.023,106.052z"></path>		</g>		<g>			<path fill="#E4221C" d="M182.12,105.057c-2.384,0.925-5.252-2.718-5.832-3.78L166.9,77.664c-0.831-2.139-2.148-5.098-1.611-8.329     c-2.494,2.367-1.878,5.543-1.456,7.785l10.32,27.168c1.002,1.571,2.84,4.719,5.465,5.714c0.57-0.837,0.371-3.222,0.858-3.411     c0,0,0.908,0.319,1.978-0.095l22.18-8.608c-1.028,1.966-1.092,4.397-2.239,6.633l-18.142,7.042     c-8.22,3.191-12.343-9.594-13.721-13.144l-7.638-20.262c-1.502-4.734,0.103-10.115,4.433-11.794l21.839-8.477l2.776,7.151     l-16.197,6.286l3.398,8.756l13.571-5.267c1.052,2.278,2.184,6.204,3.441,8.29l-12.685,4.81c0.54,2.254,1.272,4.432,2.4,7.913     l15.954-6.193l2.624,6.761L182.12,105.057z M188.516,72.073l-9.777,3.795l-1.472-3.795l14.106-5.474     C190.539,68.489,189.003,71.884,188.516,72.073z M192.126,90.317l-6.274,2.434l-1.53-3.939l10.944-4.248     C194.238,86.53,193.124,88.418,192.126,90.317z"></path>		</g>		<g>			<path fill="#E4221C" d="M250.296,90.454c-6.627,0.085-16.208,1.775-16.336-8.192l-0.397-30.527     c-1.245,0.538-2.643,5.41-2.631,6.35l0.416,32.145c0.022,1.669,1.938,4.515,3.869,4.49c0.155-0.001,2.721-3.428,2.67-3.374     c2.618,0.644,8.52,1.089,12.273,0.676c2.664,0.122,7.358-0.095,12.404-1.362c-1.128,1.581-3.032,3.641-4.886,5.492     c-4.848,0.533-15.595,0.88-22.179,0.286c-2.974,0.039-5.389-5.149-5.409-6.661l-0.404-31.206     c-0.145-11.115,11.663-10.223,15.941-10.28c4.906-0.063,18.206-0.601,17.951,3.787c0.001,0.209-0.255,0.525,0.042,7.306     l-10.698,0.139l-0.039-3.026l-7.306,0.094l0.965,26.084c0.728-0.218,1.718-0.231,8.087-0.104     c-0.177-1.668,0.007-3.498-0.018-5.376c2.657-0.452,7.868-0.989,8.392-0.944l2.296-0.03l0.136,10.437     C265.538,90.569,251.131,90.444,250.296,90.454z M248.515,61.668l-1.671,0.021c0.1-0.419,0.089-1.149-0.055-4.278l4.854-0.064     C250.824,58.61,249.748,60.242,248.515,61.668z M259.73,65.28l-10.698,0.139l3.745-4.955l10.698-0.139L259.73,65.28z"></path>		</g>		<g>			<path fill="#E4221C" d="M329.037,98.929c-3.526,9.096-9.439,4.285-14.346,2.943L300.2,96.535     c-4.913-1.905-1.335-7.959-0.822-10.726l8.996-22.92c0.901-1.888,1.128-2.473,2.85-4.323c-3.921,0.16-6.031,3.146-7.197,5.435     l-10.954,28.26c-0.604,1.556-1.465,4.355,0.874,6.548c1.177-0.439,2.733-0.843,3.487-1.781l19.164,7.43     c0.486,0.188,4.588,1.442,7.316,2.052c-10.722,3.845-18.524-1.138-27.959-4.515c-0.28,0.003-0.632-0.245-1.119-0.434     c-2.967-1.15-4.77-4.87-3.638-7.789l11.612-30.242c1.945-4.73,7.121-7.982,11.742-6.19c0.486,0.188,1.086,0.085,1.205,0.355     l21.012,8.146c5.546,2.149-1.086,16.082-1.596,17.397L329.037,98.929z M326.406,69.488l-6.858-2.66l-10.313,26.607l7.295,2.828     L326.406,69.488z M320.514,72.855l-1.8-0.698c0.297-0.333,0.342-0.595,1.538-3.824l4.378,1.697     C323.35,70.877,321.792,72.007,320.514,72.855z"></path>		</g>		<g>			<path fill="#E4221C" d="M368.609,136.361l-7.457-6.77c-2.804-2.655-6.606-5.319-3.717-10.344l4.479-4.883     c-7.382,1.347-6.292,0.726-9.555,4.175c-1.902,2.008-3.732,5.233-1.911,8.393c2.054-0.5,2.749-0.703,4.542-1.305     c9.669,9.367,12.626,12.239,20.583,18.332c-0.694,0.277-7.173,2.264-9.181,0.362l-15.574-14.667     c-0.416-0.395-0.683-0.72-1.062-1.078c-3.874-3.954-0.71-8.359,1.836-11.05c2.798-2.956,2.181-2.607,8.523-4.147     c-0.519-2.791,1.369-6.608,2.767-8.086l10.483-10.771c3.17-2.818,9.139-1.838,11.262,0.17l17.395,16.464     c2.841,2.689-1.004,9.181-1.936,10.167l-4.088,4.32l-9.209-8.715c1.842-1.49,4.118-4.579,5.52-5.984     c-1.714-1.909-4.318-4.015-6.365-5.951l-7.712,8.147c9.907,11.318,19.201,12.428,6.575,25.693     C378.746,145.236,375.463,142.632,368.609,136.361z M380.443,126.439l-9.057-8.572c-9.097-8.683-0.637-15.116,4.062-20.08     c1.399-1.478,2.973-3.293,4.408-3.443c-1.202-0.78-5.517,0.668-6.199,1.387l-10.653,11.256c-1.793,1.894-1.915,5.516-1.711,6.211     c0.883-0.098,1.653-0.304,2.209-0.209c3.372,3.194,6.503,5.653,9.123,8.275c-1.427,1.812-1.967,2.306-4.336,4.734l6.56,6.353     L380.443,126.439z M384.272,111.311l-1.662-1.356l3.12-3.298l4.43,4.05C388.06,110.801,386.186,111.111,384.272,111.311z"></path>		</g>	</g>	<g>		<path fill="#F6B221" d="M56.738,278.676c0.303,0,0.606-0.01,0.907-0.031l1.259-0.091l-0.725-10.173l-3.701,0.264l0.433,6.071    c-0.804-0.087-1.438-0.318-1.866-0.522c-1.988-0.949-3.331-3.041-3.502-5.464c-0.266-3.719,2.175-7.864,7.218-8.223    c4.509-0.328,8.058,2.694,8.375,7.175c0.169,2.354-0.631,3.795-1.245,4.672c-0.479,0.677-1.123,1.356-1.864,1.96l-0.671,0.547    l2.798,2.671l0.525-0.443c0.907-0.768,1.793-1.765,2.431-2.733c1.659-2.506,1.854-5.173,1.727-6.967    c-0.471-6.608-5.801-11.208-12.321-10.772c-3.135,0.224-5.953,1.6-7.935,3.877c-1.993,2.29-2.967,5.297-2.742,8.468    c0.331,4.643,3.046,7.031,4.636,8.043C52.165,278.073,54.452,278.676,56.738,278.676z"></path>		<path fill="#F6B221" d="M49.286,293.859l1.025,4.105l6.292,1.001l1.899,7.607l-5.098,3.78l1.023,4.099l21.214-16.088    L49.286,293.859z M66.593,300.54l-4.866,3.637l-1.147-4.6L66.593,300.54z"></path>		<path fill="#F6B221" d="M74.925,331.201l0.033-2.178c0.013-0.802,0.027-1.56,0.315-2.264c0.206-0.546,0.409-0.758,0.947-0.984    c0.667-0.28,1.328-0.286,1.909-0.015c0.601,0.279,1.087,0.826,1.405,1.584c0.367,0.873,0.316,1.539,0.215,1.93    c-0.125,0.439-0.452,1.016-0.813,1.436l-0.562,0.655l3.122,2.087l0.44-0.528c0.762-0.913,1.296-2.017,1.507-3.107    c0.252-1.302,0.106-2.5-0.474-3.88c-1.502-3.58-4.881-5.104-8.204-3.711c-1.492,0.626-2.415,1.572-2.995,3.065    c-0.488,1.251-0.525,2.382-0.555,3.29l-0.087,2.251c-0.034,1.093-0.061,1.955-0.312,2.622c-0.248,0.691-0.686,1.135-1.421,1.444    c-0.84,0.351-1.717,0.398-2.472,0.139c-0.849-0.295-1.521-0.983-1.944-1.99c-0.407-0.971-0.436-1.781-0.098-2.606    c0.315-0.722,0.917-1.387,1.654-1.829l0.746-0.446l-2.434-3.082l-0.592,0.422c-1.342,0.956-2.404,2.251-2.912,3.55    c-0.674,1.702-0.607,3.468,0.203,5.397c1.229,2.927,3.75,4.608,6.539,4.606c0.95,0,1.933-0.195,2.904-0.603    c1.632-0.686,2.683-1.721,3.311-3.256C74.845,333.871,74.909,332.438,74.925,331.201z"></path>		<polygon fill="#F6B221" points="93.795,355.592 96.998,353.721 89.968,341.689 86.763,343.559 89.313,347.92 73.243,357.312     75.176,360.624 91.246,351.23   "></polygon>		<path fill="#F6B221" d="M106.717,367.429l-2.524-3.229l-17.589,13.75l2.363,3.022l6.524-5.101l-2.977,9.639l2.886,3.69    l3.322-11.175c2.3,1.759,5.368,1.73,7.832-0.197c1.73-1.353,2.674-3.332,2.527-5.288    C108.946,370.515,107.746,368.745,106.717,367.429z M101.814,375.476c-0.82-0.183-1.657-0.795-2.418-1.768l-0.431-0.553    l4.667-3.648l0.394,0.503c0.521,0.667,1.087,1.453,1.222,2.363c0.146,0.999-0.194,1.763-1.104,2.473    C103.385,375.44,102.606,375.649,101.814,375.476z"></path>		<path fill="#F6B221" d="M129.157,391.475c-2.299-2.12-5.258-3.223-8.24-3.147c-3.062,0.091-5.935,1.429-8.09,3.768    c-2.151,2.333-3.25,5.298-3.098,8.351c0.151,3.019,1.502,5.85,3.807,7.974c2.272,2.096,5.085,3.131,7.883,3.131    c3.085,0,6.15-1.26,8.445-3.751c2.157-2.339,3.258-5.312,3.1-8.371C132.807,396.418,131.455,393.593,129.157,391.475z     M121.472,392.179c1.923,0,3.745,0.711,5.17,2.023c3.117,2.874,3.277,7.789,0.358,10.957c-1.426,1.547-3.347,2.451-5.412,2.548    c-2.078,0.094-4.024-0.619-5.538-2.015c-1.514-1.395-2.387-3.296-2.458-5.353c-0.072-2.066,0.676-4.054,2.1-5.601h0.001    c1.424-1.547,3.346-2.452,5.41-2.549C121.227,392.182,121.35,392.179,121.472,392.179z"></path>		<polygon fill="#F6B221" points="153.99,428.931 149.278,405.911 136.343,426.541 139.593,428.58 147.52,415.936 152.232,438.957     165.2,418.273 161.95,416.236   "></polygon>		<path fill="#F6B221" d="M188.127,428.368c-6.059-2.354-12.632,0.518-14.974,6.539c-2.342,6.023,0.567,12.583,6.62,14.937    c1.432,0.556,2.892,0.822,4.318,0.822c4.609,0,8.868-2.762,10.656-7.36C197.089,437.284,194.18,430.722,188.127,428.368z     M191.115,441.893c-1.562,4.015-6.041,6.032-9.997,4.494c-1.918-0.746-3.425-2.197-4.242-4.087    c-0.82-1.896-0.853-4.02-0.091-5.978c1.562-4.015,6.047-6.029,9.997-4.496C190.731,433.362,192.675,437.879,191.115,441.893z"></path>		<polygon fill="#F6B221" points="215.261,434.002 207.041,458.315 210.91,458.98 214.786,446.921 218.839,462.31 227.868,449.167     227.429,461.81 231.296,462.472 231.892,436.808 220.389,453.509   "></polygon>		<polygon fill="#F6B221" points="253.922,434.051 248.893,439.123 251.284,440.944 249.232,440.92 248.981,463.246 252.816,463.29     253.067,440.963 251.463,440.945 257.519,436.421   "></polygon>		<path fill="#F6B221" d="M267.917,463.02l4.197-0.531l1.738-6.127l7.777-0.984l3.149,5.51l4.19-0.533l-13.462-22.965    L267.917,463.02z M279.634,451.891l-4.703,0.595l1.669-5.856L279.634,451.891z"></path>		<polygon fill="#F6B221" points="332.235,439.497 317.168,426.098 323.785,450.888 327.374,449.298 323.925,437.117     335.816,447.682 336.056,431.744 342.691,442.51 346.275,440.922 332.565,419.229   "></polygon>		<polygon fill="#F6B221" points="362.768,426.589 359.13,421.142 365.978,416.568 363.917,413.484 357.07,418.055 354.49,414.189     361.545,409.48 359.485,406.393 349.239,413.232 361.637,431.805 371.883,424.966 369.823,421.878   "></polygon>		<polygon fill="#F6B221" points="381.106,388.311 377.841,391.228 379.554,399.112 371.998,396.444 368.739,399.354     380.408,403.412 383.175,416.392 386.443,413.476 384.553,404.776 392.94,407.675 396.199,404.764 383.722,400.464   "></polygon>					<rect x="397.45" y="373.831" transform="matrix(0.66 -0.7512 0.7512 0.66 -153.4493 430.9023)" fill="#F6B221" width="3.835" height="22.324"></rect>		<path fill="#F6B221" d="M424.058,358.466l0.358,1.808c0.125,0.635,0.248,1.624,0.107,2.728c-0.142,1.237-0.576,2.449-1.22,3.416    c-2.054,3.074-6.481,4.836-10.649,2.049c-1.782-1.192-3.012-2.937-3.458-4.916c-0.449-1.991-0.057-4.045,1.105-5.784    c0.588-0.88,1.453-1.699,2.424-2.3c0.799-0.482,1.872-0.888,2.868-1.086l1.808-0.359l-4.23-2.827l-0.358,0.122    c-2.325,0.795-4.127,2.19-5.51,4.26c-3.686,5.517-2.328,12.444,3.161,16.114c2.038,1.36,4.273,2.017,6.466,2.017    c3.65,0,7.178-1.82,9.457-5.23c0.764-1.144,2.03-3.544,1.924-6.785l-0.013-0.392L424.058,358.466z"></path>		<path fill="#F6B221" d="M437.096,349.88l1.753-3.853l-4.303-4.699l3.247-7.139l6.342,0.213l1.75-3.844l-26.621-0.606    L437.096,349.88z M431.813,338.376l-4.111-4.496l6.074,0.179L431.813,338.376z"></path>		<polygon fill="#F6B221" points="434.49,290.734 433.531,294.448 448.028,298.198 427.518,309.637 451.081,315.732 452.04,312.018     437.605,308.284 458.113,296.845   "></polygon>		<path fill="#F6B221" d="M460.092,263.8l0.33-4.211l-25.229,8.519l23.564,12.641l0.333-4.218l-5.65-2.947l0.616-7.819    L460.092,263.8z M450.235,267.013l-0.373,4.728l-5.398-2.825L450.235,267.013z"></path>	</g>	<g>		<path fill="#51AA7A" d="M65.826,220.521c0,0,5.798-3.626,7.772-2.75c1.974,0.876,4.442,1.971,4.442,1.971l1.896,2.506    l-2.841,0.834l-3.377,2.156l-4.402,1.697l-5.005-0.824l-1.889-0.716l-2.739-2.895l-0.82-3.479l0.037-3.958l-1.846-3.343    l2.437-0.53l3.779,1.408l1.94,2.042l0.855,3.763L65.826,220.521z"></path>		<polygon fill="#F6B221" points="99.139,204.858 99.147,206.424 96.129,209.145 90.569,206.915 86.842,204.664 86.023,204.059     83.911,205.822 82.755,205.792 80.978,209.798 76.289,216.824 74.585,217.759 71.448,218.019 65.826,220.521 65.842,216.217     61.954,211.631 62.526,206.527 67.321,195.721 66.437,193.717 62.216,194.785 59.98,194.196 57.04,193.375 53.728,188.4     53.928,185.225 56.129,182.173 53.099,180.828 50.573,176.807 51.46,173.171 52.738,171.2 56.432,171.228 56.146,167.515     58.264,164.466 60.425,163.41 63.349,163.177 64.23,161.191 65.354,158.385 69.288,158.6 72.681,155.674 75.942,155.952     79.253,158.751 82.271,158.76 83.987,159.522 85.9,157.027 89.598,156.774 92.519,157.909 93.411,161.165 96.198,161.878     99.159,162.467 101.394,166.238 101.523,169.398 104.877,169.194 107.813,170.658 110.594,174.47 109.463,178.562 112.167,178.19     115.08,179.16 116.633,180.655 117.073,185.202 115.015,188.479 117.802,191.005 117.669,194.209 116.399,196.345     111.196,198.629 109.504,202.351 105.568,204.593   "></polygon>		<g>			<path d="M83.779,158.485c1.54-2.621,5.939-3.369,8.599-1.375c1.143,0.857,1.765,1.976,1.643,3.446     c-0.009,0.109,0.027,0.223,0.048,0.372c2.349-0.411,4.382,0.166,6.062,1.802c1.68,1.636,2.234,3.681,1.967,6.023     c2.705-0.621,5.103-0.149,7.017,1.846c1.96,2.043,2.232,4.469,1.219,7.157c0.255-0.064,0.412-0.103,0.568-0.143     c1.634-0.416,3.124-0.113,4.467,0.901c2.25,1.697,3.049,5.102,1.767,7.69c-0.351,0.708-0.833,1.35-1.274,2.052     c0.112,0.077,0.267,0.189,0.427,0.293c2.143,1.397,2.611,3.924,1.718,5.966c-1.06,2.422-2.973,3.822-5.487,4.471     c-0.254,0.066-0.513,0.115-0.785,0.175c-0.033,0.112-0.066,0.202-0.086,0.295c-0.333,1.51-1.169,2.712-2.342,3.674     c-2.456,2.015-5.276,2.796-8.425,2.38c-0.356-0.047-0.706-0.142-1.095-0.222c-0.006,0.182-0.018,0.324-0.014,0.465     c0.037,1.239-0.523,2.138-1.573,2.751c-0.639,0.373-1.342,0.554-2.071,0.64c-1.048,0.124-2.089,0.045-3.107-0.197     c-2.688-0.638-5.058-1.819-6.754-4.1c-0.039-0.052-0.102-0.086-0.108-0.091c-0.459,0.42-0.865,0.869-1.348,1.211     c-0.533,0.377-1.193,0.325-1.819,0.279c-1.313,4.447-3.578,8.26-7.09,11.341c0.253,0.121,0.424,0.212,0.601,0.286     c1.727,0.729,2.872,2.029,3.615,3.711c0.508,1.151,0.314,1.426-0.93,1.415c-0.881-0.007-1.728,0.133-2.556,0.469     c-1.072,0.435-1.981,1.11-2.915,1.768c-0.728,0.513-1.483,1.049-2.308,1.351c-1.417,0.518-2.919,0.731-4.438,0.594     c-1.684-0.152-3.335-0.42-4.549-1.788c-0.062-0.07-0.165-0.1-0.242-0.159c-1.416-1.073-2.569-2.349-3.211-4.043     c-0.491-1.296-0.599-2.636-0.601-4.003c-0.001-0.724-0.003-1.464-0.141-2.17c-0.245-1.255-0.862-2.264-2.195-2.651     c-0.318-0.092-0.597-0.249-0.6-0.635c-0.003-0.348,0.256-0.484,0.528-0.62c1.496-0.75,3.053-0.901,4.669-0.495     c0.277,0.07,0.549,0.161,0.841,0.247c0.054-0.182,0.107-0.293,0.118-0.409c0.231-2.357,0.846-4.626,1.582-6.865     c0.858-2.61,1.876-5.145,3.63-7.244c-0.296-0.693-0.577-1.35-0.857-2.005c-0.465,0.19-0.944,0.434-1.452,0.579     c-0.532,0.153-1.088,0.263-1.639,0.301c-2.295,0.159-4.366-0.499-6.217-1.841c-1.774-1.285-3.013-2.955-3.418-5.143     c-0.369-1.993,0.144-3.748,1.594-5.201c0.117-0.118,0.224-0.246,0.358-0.394c-0.381-0.231-0.743-0.426-1.08-0.657     c-2.114-1.456-3.512-3.389-3.901-5.969c-0.136-0.9-0.079-1.8,0.286-2.643c0.82-1.896,2.551-2.866,4.638-2.63     c0.234,0.026,0.468,0.058,0.764,0.095c-0.036-0.249-0.061-0.433-0.089-0.616c-0.227-1.48-0.037-2.896,0.625-4.249     c1.074-2.198,3.18-3.505,5.422-3.337c0.286,0.021,0.569,0.077,0.912,0.124c0.046-1.707,0.643-3.146,1.983-4.204     c1.36-1.073,2.875-1.32,4.48-0.68c1.322-1.916,3.045-3.018,5.357-2.927c2.326,0.091,3.929,1.343,4.937,3.382     c1.729-0.656,2.393-0.603,4.096,0.329C83.679,158.586,83.744,158.544,83.779,158.485z M67.269,219.13     c1.931-1.291,4.048-1.962,6.38-1.888c0.363,0.011,0.681-0.049,0.945-0.284c0.796-0.706,1.654-1.359,2.357-2.149     c2.29-2.572,3.826-5.587,4.967-8.816c0.015-0.044,0.01-0.095,0.018-0.18c-0.505-0.444-1.027-0.902-1.581-1.389     c-2.507,1.775-5.143,1.869-7.76,0.312c-2.576-1.533-3.792-3.867-3.587-6.911c-0.443-0.248-0.88-0.493-1.398-0.783     c-0.325,0.499-0.669,0.962-0.945,1.463c-1.53,2.781-2.609,5.737-3.297,8.829c-0.273,1.226-0.397,2.485-0.6,3.728     c-0.054,0.33,0.063,0.536,0.326,0.735c2.394,1.811,3.51,4.257,3.55,7.228c0.002,0.138,0.015,0.277,0.027,0.489     C66.915,219.358,67.094,219.247,67.269,219.13z M98.081,197.576c0.504,0.173,1.027,0.291,1.534,0.456     c0.439,0.143,0.617,0.406,0.54,0.73c-0.083,0.351-0.394,0.503-0.88,0.386c-0.566-0.136-1.124-0.299-1.684-0.458     c-0.256-0.073-0.504-0.181-0.763-0.241c-1.226-0.288-2.295-0.9-3.329-1.586c-0.623-0.414-1.241-0.834-1.849-1.243     c-0.668,0.47-1.352,0.953-2.067,1.456c0.933,1.373,2.615,2.07,3.607,3.668c-0.339,0.025-0.562,0.107-0.72,0.04     c-0.485-0.207-0.978-0.425-1.41-0.723c-1.062-0.736-1.97-1.64-2.616-2.636c-0.974-0.074-1.854-0.14-2.777-0.21     c0.065,0.189,0.129,0.389,0.201,0.587c0.592,1.615,0.892,3.276,0.68,4.995c-0.053,0.429,0.158,0.655,0.372,0.948     c1.616,2.214,3.861,3.423,6.476,3.978c0.84,0.178,1.734,0.187,2.597,0.144c0.537-0.027,1.095-0.228,1.583-0.473     c0.812-0.407,1.088-1.143,0.859-2.024c-0.067-0.257-0.197-0.496-0.27-0.752c-0.17-0.598,0.211-1.023,0.817-0.917     c0.142,0.025,0.276,0.089,0.414,0.135c3.366,1.131,6.413,0.478,9.141-1.715c0.999-0.803,1.726-1.834,1.919-3.158     c0.183-1.263-0.261-2.283-1.209-3.103c-0.835-0.723-1.843-1.042-2.903-1.254c-0.777-0.155-1.467-0.057-2.214,0.283     c-2.455,1.118-5.05,1.686-7.761,1.662c-0.162-0.001-0.325,0.013-0.487,0.021c-0.011,0.063-0.021,0.126-0.032,0.189     C96.594,197.032,97.332,197.319,98.081,197.576z M82.775,204.994c0.929,0.432,1.756,0.194,2.208-0.727     c0.261-0.532,0.47-1.139,0.507-1.725c0.181-2.842-0.688-5.347-2.587-7.482c-0.092-0.104-0.216-0.179-0.426-0.349     c0.03,0.257,0.049,0.405,0.064,0.552c0.093,0.889,0.206,1.776,0.265,2.666c0.016,0.248-0.086,0.529-0.211,0.751     c-0.077,0.136-0.313,0.271-0.458,0.253c-0.145-0.018-0.339-0.206-0.383-0.358c-0.086-0.297-0.094-0.62-0.114-0.933     c-0.081-1.264-0.307-2.493-0.853-3.71c-0.265,0.041-0.525,0.071-0.78,0.123c-0.374,0.075-0.675,0.013-0.827-0.384     c-0.017-0.045-0.044-0.087-0.068-0.128c-0.599-1.018-0.816-1.091-1.937-0.623c-0.775,0.323-1.411,0.841-1.989,1.44     c-0.167,0.173-0.339,0.372-0.55,0.459c-0.172,0.071-0.434,0.054-0.604-0.03c-0.241-0.119-0.292-0.394-0.187-0.637     c0.094-0.218,0.225-0.433,0.386-0.606c0.564-0.605,1.171-1.162,1.925-1.529c0.194-0.095,0.392-0.179,0.749-0.342     c-0.63-0.31-1.129-0.447-1.636-0.551c-1.924-0.396-3.809-0.278-5.638,0.466c-0.704,0.286-1.338,0.685-1.828,1.281     c-0.744,0.905-0.733,1.906,0.091,2.742c0.383,0.389,0.863,0.684,1.326,1.043c0.181-0.277,0.297-0.487,0.444-0.672     c0.183-0.229,0.435-0.327,0.711-0.195c0.273,0.13,0.361,0.382,0.319,0.672c-0.017,0.118-0.062,0.234-0.11,0.345     c-0.789,1.845-0.471,3.565,0.636,5.165c1.57,2.271,4.67,3.239,7.16,2.272c0.781-0.304,1.459-0.759,2.031-1.372     c0.083-0.089,0.156-0.188,0.246-0.267c0.224-0.196,0.433-0.594,0.771-0.333c0.304,0.235,0.044,0.581-0.066,0.864     c-0.06,0.153-0.156,0.292-0.241,0.448C81.561,204.212,82.104,204.682,82.775,204.994z M82.979,193.576     c0.168,0.12,0.458,0.137,0.677,0.104c0.945-0.141,1.826-0.478,2.655-0.954c0.21-0.12,0.424-0.24,0.649-0.324     c0.248-0.092,0.526-0.052,0.628,0.199c0.069,0.169,0.034,0.433-0.055,0.601c-0.095,0.179-0.287,0.338-0.473,0.433     c-0.733,0.371-1.48,0.716-2.225,1.064c-0.148,0.069-0.311,0.106-0.517,0.175c0.145,0.33,0.332,0.533,0.628,0.69     c0.688,0.364,1.357,0.734,2.164,0.791c1.481,0.105,2.731-0.37,3.712-1.469c1.602-1.796,0.918-4.261-1.376-4.991     c-0.412-0.131-0.854-0.168-1.284-0.243c-0.673-0.118-0.783-0.296-0.574-0.936c0.828-2.535,0.226-4.685-1.75-6.246     c-1.932-1.526-4.646-1.715-6.687-0.462c-0.694,0.426-1.269,0.949-1.588,1.736c-0.249,0.615-0.449,0.639-0.957,0.238     c-0.038-0.03-0.077-0.059-0.115-0.089c-1.152-0.913-2.227-0.795-3.016,0.431c-0.966,1.501-1.056,3.089-0.209,4.69     c0.226,0.428,0.552,0.648,1.088,0.706c1.336,0.144,2.451,0.27,4.433,1.65c0.032-0.175,0.062-0.322,0.085-0.47     c0.133-0.883,0.24-1.771,0.41-2.647c0.051-0.265,0.235-0.538,0.432-0.732c0.269-0.266,0.667-0.134,0.709,0.242     c0.039,0.351-0.009,0.726-0.095,1.072c-0.328,1.313-0.235,2.634-0.173,4.027C81.243,192.631,82.138,192.977,82.979,193.576z      M67.259,188.739c-1.97-1.322-3.558-2.988-4.597-5.14c-0.502-1.04-0.813-2.125-0.694-3.3c0.147-1.454,1.085-2.488,2.529-2.675     c0.616-0.08,1.25-0.018,1.936-0.022c0.105-0.188,0.028-0.379-0.161-0.571c-0.943-0.96-1.992-1.79-3.255-2.264     c-0.946-0.355-1.921-0.702-2.966-0.618c-0.43,0.035-0.859,0.106-1.281,0.2c-2.405,0.533-3.513,4.059-1.316,5.914     c0.423,0.358,0.881,0.68,1.349,0.976c0.266,0.169,0.489,0.336,0.456,0.671c-0.035,0.351-0.311,0.447-0.61,0.524     c-0.491,0.127-0.995,0.236-1.46,0.432c-2.205,0.927-3.289,3.063-2.748,5.395c0.396,1.711,1.393,3.04,2.79,4.043     c2.589,1.859,5.372,2.349,8.372,1.029c0.408-0.18,0.726-0.362,0.938-0.802c0.321-0.667,0.908-1.124,1.522-1.528     c0.194-0.128,0.389-0.254,0.652-0.427c-1.205-0.122-2.32-0.17-3.41-0.363c-1.285-0.228-2.552-0.567-3.818-0.89     c-0.296-0.075-0.573-0.258-0.834-0.43c-0.231-0.152-0.404-0.388-0.273-0.681c0.128-0.287,0.398-0.329,0.682-0.264     c0.189,0.043,0.375,0.099,0.56,0.156c1.836,0.575,3.717,0.913,5.631,1.08c0.167,0.015,0.336,0.009,0.504,0.013     c0.013-0.035,0.026-0.07,0.039-0.105C67.617,188.975,67.437,188.858,67.259,188.739z M74.599,160.486     c-2.381-0.183-4.25,0.744-5.575,2.726c-0.44,0.658-0.628,1.41-0.58,2.211c0.011,0.192,0.033,0.392-0.009,0.576     c-0.121,0.536-0.447,0.699-0.971,0.515c-0.046-0.016-0.09-0.037-0.134-0.057c-2.245-1.042-4.224,0.195-5.094,1.989     c-0.743,1.531-0.744,3.089,0.082,4.609c0.086,0.158,0.221,0.356,0.372,0.4c1.43,0.415,2.593,1.288,3.767,2.146     c0.019,0.014,0.044,0.02,0.072,0.033c0.363-0.522,0.68-1.086,1.102-1.558c0.472-0.527,1.141-0.765,1.841-0.721     c0.641,0.04,1.275,0.206,1.925,0.318c0.056-0.432,0.141-0.884,0.159-1.338c0.008-0.199-0.096-0.415-0.191-0.603     c-0.34-0.67-0.721-1.32-1.04-1.999c-0.172-0.367-0.262-0.775-0.359-1.172c-0.021-0.087,0.067-0.278,0.135-0.294     c0.118-0.029,0.302-0.001,0.382,0.08c0.15,0.151,0.252,0.352,0.361,0.539c0.411,0.708,0.816,1.418,1.233,2.143     c1.869-1.789,2.574-1.977,4.86-1.289c-0.198-0.695-0.43-1.341-0.559-2.007c-0.132-0.687-0.213-1.392-0.224-2.09     c-0.01-0.674,0.057-1.356,0.168-2.022c0.115-0.689,0.325-1.362,0.502-2.076C76.228,160.912,75.465,160.553,74.599,160.486z      M84.036,168.205c-0.058-0.771-0.17-1.526-0.156-2.279c0.014-0.746-0.05-1.557,0.725-2.209c0.628,1.39,0.345,2.841,0.706,4.297     c1.056-1.101,2.275-1.515,3.728-1.13c0.055-0.187,0.125-0.336,0.142-0.491c0.215-1.958,1.186-3.454,2.789-4.557     c0.822-0.565,1.11-1.363,0.773-2.313c-0.311-0.877-0.951-1.461-1.776-1.824c-1.554-0.683-3.111-0.647-4.639,0.101     c-0.716,0.35-1.263,0.883-1.658,1.581c-0.508,0.898-0.846,0.941-1.72,0.335c-0.351-0.243-0.753-0.455-1.163-0.559     c-0.87-0.221-1.622,0.108-2.275,0.676c-0.751,0.654-1.236,1.487-1.56,2.416c-0.85,2.439-0.799,4.85,0.251,7.225     c0.088,0.199,0.165,0.403,0.282,0.688C80.688,167.921,81.465,167.654,84.036,168.205z M95.996,191.705     c0.425-0.099,0.851-0.195,1.28-0.266c0.185-0.031,0.393-0.034,0.57,0.02c0.372,0.112,0.477,0.494,0.168,0.724     c-0.321,0.239-0.707,0.423-1.092,0.541c-1.262,0.387-2.557,0.539-3.877,0.413c-0.094-0.009-0.191,0.01-0.304,0.017     c-0.104,0.351-0.206,0.696-0.314,1.06c0.436,0.563,1.073,0.77,1.703,0.892c0.827,0.161,1.679,0.294,2.517,0.281     c3.035-0.048,5.892-0.825,8.553-2.291c0.897-0.494,1.718-1.094,2.376-1.892c1.127-1.366,0.914-2.387-0.706-3.054     c-0.616-0.254-1.305-0.407-1.971-0.447c-0.96-0.058-1.929,0.017-2.893,0.058c-0.323,0.013-0.641,0.069-0.837-0.266     c-0.193-0.33-0.002-0.591,0.157-0.871c0.249-0.439,0.521-0.878,0.681-1.352c0.199-0.591-0.028-0.88-0.664-0.882     c-0.43-0.002-0.881,0.039-1.288,0.169c-2.952,0.944-5.345,2.688-7.229,5.141c-0.074,0.096-0.127,0.207-0.198,0.305     c-0.304,0.423-0.422,0.856-0.131,1.345c0.096,0.161,0.124,0.362,0.208,0.622C93.847,192.016,94.927,191.953,95.996,191.705z      M97.322,174.066c0.054-0.147,0.116-0.275,0.149-0.409c0.408-1.647,1.305-2.965,2.702-3.919c0.37-0.253,0.57-0.548,0.677-0.97     c0.704-2.781-1.178-5.823-4.057-6.535c-2.967-0.734-5.754,1.025-6.417,4.053c-0.078,0.354-0.139,0.712-0.217,1.111     c2.05,1.796,2.598,4.024,1.708,6.656c0.373,0.161,0.721,0.312,1.143,0.494c0.228-0.534,0.481-1.005,0.631-1.506     c0.299-0.998,0.533-2.015,0.812-3.019c0.09-0.323,0.213-0.643,0.373-0.937c0.064-0.118,0.284-0.236,0.405-0.213     c0.124,0.024,0.288,0.213,0.304,0.345c0.04,0.332,0.057,0.682-0.006,1.008c-0.317,1.64-0.644,3.282-1.501,4.79     C95.001,174.258,96.092,173.961,97.322,174.066z M78.013,181.125c0.315-0.257,0.674-0.459,1.024-0.692     c-0.027-0.08-0.034-0.155-0.073-0.209c-1.479-2.067-1.852-4.383-1.536-6.851c0.073-0.569,0.289-1.127-0.13-1.673     c-0.381-0.496-0.806-0.898-1.423-1.068c-1.2-0.331-2.48,0.362-2.977,1.612c-0.308,0.776-0.326,1.558-0.077,2.35     c0.051,0.162,0.116,0.319,0.17,0.48c0.082,0.244,0.115,0.525-0.136,0.648c-0.192,0.094-0.468,0.101-0.679,0.045     c-0.196-0.052-0.345-0.26-0.535-0.363c-0.507-0.277-0.999-0.619-1.543-0.782c-1.056-0.316-1.888,0.159-2.207,1.207     c-0.132,0.434-0.239,0.91-0.202,1.355c0.241,2.858,1.492,5.124,4.013,6.605c0.184,0.108,0.396,0.168,0.548,0.231     c0.489-0.473,0.884-0.992,1.4-1.315c0.491-0.307,1.109-0.408,1.734-0.622c-0.325-0.478-0.706-0.994-1.039-1.54     c-0.301-0.494-0.549-1.02-0.817-1.534c-0.033-0.063-0.044-0.139-0.057-0.21c-0.055-0.308-0.158-0.638,0.139-0.875     c0.196-0.157,0.536,0.028,0.815,0.442c0.624,0.925,1.232,1.86,1.856,2.785c0.214,0.317,0.456,0.616,0.709,0.954     C77.384,181.725,77.678,181.399,78.013,181.125z M87.63,175.094c0.741-0.529,1.545-0.924,2.452-1.045     c0.396-0.053,0.594-0.24,0.728-0.594c0.632-1.674,0.394-3.212-0.792-4.542c-1.273-1.43-3.038-1.274-4.116,0.306     c-0.742,1.087-0.742,1.087-1.864,0.419c-1.389-0.827-2.855-0.615-3.95,0.584c-0.904,0.989-1.311,2.204-1.476,3.498     c-0.288,2.271,0.253,4.375,1.4,6.408c0.275-0.053,0.551-0.107,0.867-0.168c-0.055-0.256-0.106-0.464-0.143-0.674     c-0.294-1.67,0.065-3.185,1.133-4.505c0.27-0.333,0.608-0.634,0.968-0.868c1.525-0.991,3.198-0.552,4.079,1.043     c0.07,0.127,0.127,0.261,0.229,0.473C87.357,175.282,87.495,175.19,87.63,175.094z M55.391,175.965     c0.96-2.482,3.043-3.038,5.508-2.951c-0.523-1.578-0.581-3.114,0.037-4.637c0.612-1.509,1.652-2.6,3.218-3.252     c-0.526-0.687-1.211-1.009-1.966-1.171c-1.364-0.292-2.56,0.119-3.535,1.071c-1.551,1.516-2.012,3.367-1.511,5.466     c0.039,0.164,0.105,0.322,0.153,0.485c0.259,0.883-0.181,1.346-1.084,1.198c-0.641-0.105-1.3-0.219-1.942-0.179     c-1.665,0.104-2.746,1.262-2.851,2.926c-0.061,0.968,0.142,1.881,0.553,2.748c0.9,1.904,2.35,3.228,4.283,4.046     c0.291,0.123,0.505,0.087,0.793-0.176C55.156,180.047,54.533,178.185,55.391,175.965z M86.507,181.488     c0.239-0.211,0.481-0.402,0.694-0.62c0.321-0.33,0.616-0.685,0.934-1.019c0.322-0.337,0.684-0.609,1.179-0.622     c0.212,0.849-0.09,1.341-1.843,3.036c0.384,0.573,0.771,1.151,1.205,1.798c0.292-0.079,0.619-0.147,0.931-0.257     c2.296-0.812,4.035-3.215,4.027-5.55c-0.001-0.145-0.005-0.291-0.02-0.435c-0.195-1.977-1.678-3.008-3.601-2.498     c-0.814,0.216-1.515,0.641-2.137,1.201c-0.144,0.13-0.275,0.278-0.431,0.39c-0.534,0.381-0.959,0.24-1.175-0.375     c-0.104-0.297-0.182-0.607-0.321-0.887c-0.553-1.113-1.607-1.36-2.596-0.607c-1.564,1.192-1.884,3.679-1.049,4.915     C83.817,180.108,85.212,180.556,86.507,181.488z M68.22,222.838c0.02,0.049,0.041,0.097,0.061,0.146     c-0.183,0.133-0.358,0.279-0.55,0.397c-0.695,0.428-1.458,0.686-2.271,0.681c-0.451-0.003-0.793,0.09-1.074,0.447     c-0.144,0.182-0.337,0.325-0.542,0.518c0.85,0.551,1.747,0.737,2.657,0.843c2.464,0.286,4.704-0.245,6.7-1.788     c0.741-0.573,1.579-1.03,2.41-1.472c0.852-0.453,1.823-0.457,2.758-0.584c0.185-0.025,0.37-0.054,0.606-0.089     c-0.566-1.369-1.495-2.305-2.781-2.897c-1.539-0.709-3.137-0.754-4.766-0.408c-1.792,0.38-3.341,1.274-4.825,2.302     c-0.113,0.078-0.223,0.196-0.274,0.321c-0.236,0.579-0.45,1.168-0.693,1.806C66.528,223.061,67.366,222.762,68.22,222.838z      M110.221,184.045c0.175-2.606-1.619-5.117-4.135-5.832c-1.458-0.414-2.784-0.097-4.007,0.733     c-0.156,0.106-0.283,0.333-0.318,0.523c-0.289,1.555-1.16,2.579-2.732,3.024c-0.039,0.352-0.078,0.707-0.125,1.134     c0.245-0.061,0.444-0.128,0.649-0.16c0.619-0.096,1.24-0.252,1.861-0.251c1.128,0.002,1.672,0.531,1.844,1.641     c0.014,0.091,0.043,0.179,0.093,0.384c0.77-0.526,1.483-1.018,2.202-1.504c0.239-0.162,0.474-0.349,0.74-0.449     c0.408-0.154,0.692,0.108,0.57,0.525c-0.064,0.22-0.204,0.455-0.378,0.6c-0.651,0.54-1.327,1.049-2,1.562     c-0.15,0.114-0.326,0.195-0.659,0.391c1.679,0.124,3.184,0.269,4.51,1.208C109.574,186.659,110.126,185.465,110.221,184.045z      M101.319,176.919c0.13-0.241,0.216-0.374,0.277-0.518c0.477-1.135,1.21-2.092,2.07-2.956c0.418-0.42,0.741-0.48,1.005-0.235     c0.291,0.27,0.232,0.584-0.209,1.053c-0.801,0.854-1.392,1.839-1.961,3.031c2.264-0.863,4.259-0.559,6.138,0.776     c0.633-0.718,0.926-1.554,1.008-2.454c0.342-3.74-3.122-6.644-6.85-5.757c-2.61,0.621-4.011,2.773-4.142,4.547     C99.778,174.954,100.68,175.733,101.319,176.919z M63.334,223.046c-0.165-0.645-0.326-1.292-0.502-1.992     c0.621,0.241,0.621,0.241,1.464,1.726c0.211-0.4,0.421-0.737,0.573-1.099c1.521-3.62-0.263-8.327-4.069-9.695     c-1.045-0.376-2.143-0.433-2.992-0.128c1.374,1.294,1.802,2.935,1.783,4.747c-0.007,0.701-0.014,1.406,0.047,2.104     c0.145,1.667,0.766,3.139,1.916,4.374c0.409,0.439,0.811,0.884,1.213,1.321C63.545,223.865,63.544,223.865,63.334,223.046z      M111.84,197.807c2.386-0.146,4.794-2.215,5.275-4.564c0.357-1.743-0.595-3.407-2.312-4.051     c-0.859-0.322-1.751-0.433-2.647-0.285c-0.688,0.114-1.358,0.343-2.034,0.528c-0.446,0.122-0.713,0.348-0.814,0.871     c-0.203,1.044-0.914,1.796-1.69,2.477c-0.211,0.185-0.429,0.363-0.63,0.533c0.914,0.422,1.757,0.834,2.622,1.192     c0.189,0.078,0.478,0.019,0.684-0.066c0.649-0.269,1.28-0.58,1.919-0.875c0.554-0.256,0.871-0.239,1.044,0.055     c0.167,0.284,0.001,0.593-0.506,0.905c-0.616,0.379-1.236,0.75-1.841,1.117C111.193,196.302,111.514,197.048,111.84,197.807z      M71.651,187.037c-0.009-0.669,0.136-1.34,0.215-2.027c-0.388-0.166-0.805-0.3-1.178-0.511c-1.865-1.055-3.051-2.694-3.691-4.683     c-0.263-0.818-0.727-1.058-1.444-1.103c-0.311-0.02-0.633-0.009-0.939,0.049c-0.853,0.164-1.363,0.721-1.45,1.588     c-0.034,0.333-0.014,0.678,0.031,1.011c0.041,0.31,0.113,0.625,0.231,0.913c1.357,3.306,3.722,5.55,7.124,6.668     c0.425,0.14,0.894,0.147,1.388,0.223C71.825,188.373,71.661,187.706,71.651,187.037z M77.394,160.447     c0.373-0.462,0.747-0.924,1.115-1.38c-0.794-2.169-3.474-3.659-6.065-2.454c-0.952,0.443-1.669,1.142-2.197,2.05     c-0.389,0.669-0.649,0.786-1.297,0.447c-1.565-0.82-3.492-0.097-4.435,1.617c-0.261,0.474-0.399,1.04-0.483,1.581     c-0.095,0.609,0.131,1.097,0.561,1.623c0.588,0.719,1.235,1.071,2.117,1.108c0.116,0.005,0.231,0.046,0.406,0.084     C67.517,160.269,73.92,157.589,77.394,160.447z M110.763,187.957c1.029-0.334,2.086-0.443,3.16-0.27     c0.323,0.052,0.602,0.054,0.876-0.189c2.531-2.242,2.211-6.391-0.373-8.122c-1.453-0.973-2.965-0.859-4.526-0.078     c1.16,1.537,1.686,3.235,1.519,5.279c0.432-0.291,0.766-0.507,1.09-0.738c0.237-0.169,0.453-0.366,0.688-0.537     c0.259-0.189,0.532-0.253,0.785,0.009c0.204,0.211,0.198,0.513-0.07,0.776c-0.66,0.647-1.351,1.273-2.223,1.614     c-0.439,0.172-0.691,0.445-0.934,0.834c-0.43,0.689-0.95,1.322-1.443,1.992C109.776,188.343,110.26,188.12,110.763,187.957z      M89.166,186.755c-0.017,0.598-0.155,1.193-0.239,1.778c0.802,0.327,1.62,0.661,2.491,1.016     c-0.019,0.016,0.049-0.018,0.086-0.073c1.328-1.963,3.093-3.45,5.109-4.654c0.416-0.248,0.709-0.573,0.909-1     c0.48-1.025,0.143-2.18-0.796-2.72c-1.027-0.591-2.332-0.308-2.951,0.647c-0.725,1.118-1.62,2.063-2.844,2.62     c-0.607,0.276-1.275,0.418-1.9,0.616C89.079,185.557,89.183,186.157,89.166,186.755z M98.67,181.365     c0.95-0.186,1.703-1.003,1.844-1.988c0.336-2.335-2.123-4.565-4.417-3.99c-0.323,0.081-0.642,0.23-0.922,0.412     c-0.591,0.383-0.587,0.554-0.496,1.269c0.103,0.807,0.097,1.628,0.142,2.528C96.465,179.343,97.786,179.893,98.67,181.365z"></path>		</g>	</g>	<g>		<path fill="#51AA7A" d="M450.837,220.521c0,0-5.798-3.626-7.772-2.75c-1.974,0.876-4.442,1.971-4.442,1.971l-1.896,2.506    l2.841,0.834l3.377,2.156l4.402,1.697l5.005-0.824l1.889-0.716l2.739-2.895l0.82-3.479l-0.037-3.958l1.846-3.343l-2.437-0.53    l-3.779,1.408l-1.94,2.042l-0.855,3.763L450.837,220.521z"></path>		<polygon fill="#F6B221" points="417.523,204.858 417.515,206.424 420.533,209.145 426.093,206.915 429.82,204.664 430.64,204.059     432.751,205.822 433.907,205.792 435.684,209.798 440.373,216.824 442.077,217.759 445.214,218.019 450.837,220.521     450.82,216.217 454.708,211.631 454.136,206.527 449.341,195.721 450.225,193.717 454.446,194.785 456.682,194.196     459.622,193.375 462.934,188.4 462.734,185.225 460.533,182.173 463.563,180.828 466.09,176.807 465.202,173.171 463.924,171.2     460.23,171.228 460.516,167.515 458.398,164.466 456.237,163.41 453.313,163.177 452.432,161.191 451.308,158.385 447.374,158.6     443.981,155.674 440.72,155.952 437.409,158.751 434.391,158.76 432.675,159.522 430.762,157.027 427.064,156.774     424.143,157.909 423.251,161.165 420.465,161.878 417.503,162.467 415.268,166.238 415.139,169.398 411.785,169.194     408.849,170.658 406.068,174.47 407.199,178.562 404.495,178.19 401.582,179.16 400.029,180.655 399.589,185.202 401.647,188.479     398.86,191.005 398.993,194.209 400.263,196.345 405.466,198.629 407.158,202.351 411.094,204.593   "></polygon>		<g>			<path d="M433.062,158.663c1.703-0.933,2.367-0.986,4.096-0.329c1.008-2.039,2.611-3.291,4.937-3.382     c2.311-0.091,4.034,1.011,5.357,2.927c1.606-0.64,3.12-0.394,4.48,0.68c1.34,1.057,1.937,2.497,1.983,4.204     c0.342-0.048,0.626-0.103,0.912-0.124c2.242-0.168,4.348,1.139,5.422,3.337c0.661,1.354,0.851,2.769,0.625,4.249     c-0.028,0.183-0.053,0.367-0.089,0.616c0.296-0.037,0.53-0.068,0.764-0.095c2.088-0.235,3.819,0.734,4.638,2.63     c0.365,0.844,0.422,1.744,0.286,2.643c-0.389,2.58-1.787,4.513-3.901,5.969c-0.337,0.232-0.699,0.427-1.08,0.657     c0.134,0.148,0.241,0.276,0.358,0.394c1.45,1.452,1.963,3.208,1.594,5.201c-0.405,2.187-1.644,3.857-3.418,5.143     c-1.851,1.341-3.921,2-6.217,1.841c-0.552-0.038-1.107-0.149-1.639-0.301c-0.508-0.146-0.987-0.39-1.452-0.579     c-0.28,0.656-0.561,1.312-0.857,2.005c1.754,2.099,2.772,4.634,3.63,7.244c0.736,2.238,1.352,4.508,1.582,6.865     c0.011,0.116,0.065,0.228,0.118,0.409c0.291-0.086,0.563-0.178,0.841-0.247c1.616-0.407,3.173-0.255,4.669,0.495     c0.272,0.137,0.531,0.272,0.528,0.62c-0.003,0.386-0.282,0.542-0.6,0.635c-1.333,0.388-1.95,1.396-2.195,2.651     c-0.138,0.706-0.14,1.445-0.141,2.17c-0.002,1.367-0.11,2.708-0.601,4.003c-0.642,1.694-1.796,2.97-3.211,4.043     c-0.077,0.058-0.18,0.089-0.242,0.159c-1.214,1.367-2.865,1.635-4.549,1.788c-1.519,0.138-3.021-0.076-4.438-0.594     c-0.825-0.302-1.58-0.837-2.308-1.351c-0.933-0.658-1.843-1.332-2.915-1.768c-0.828-0.336-1.675-0.477-2.556-0.469     c-1.245,0.011-1.438-0.265-0.93-1.415c0.743-1.682,1.888-2.981,3.615-3.711c0.177-0.075,0.348-0.165,0.601-0.286     c-3.512-3.081-5.777-6.894-7.09-11.341c-0.627,0.046-1.286,0.099-1.819-0.279c-0.482-0.341-0.888-0.791-1.348-1.211     c-0.006,0.005-0.069,0.039-0.108,0.091c-1.697,2.281-4.066,3.462-6.754,4.1c-1.018,0.241-2.059,0.321-3.107,0.197     c-0.73-0.086-1.432-0.267-2.071-0.64c-1.05-0.614-1.61-1.512-1.573-2.751c0.004-0.142-0.008-0.284-0.014-0.465     c-0.389,0.08-0.739,0.175-1.095,0.222c-3.149,0.416-5.969-0.365-8.425-2.38c-1.173-0.962-2.009-2.164-2.342-3.674     c-0.02-0.093-0.053-0.183-0.086-0.295c-0.272-0.06-0.531-0.11-0.785-0.175c-2.514-0.649-4.427-2.049-5.487-4.471     c-0.893-2.041-0.425-4.569,1.718-5.966c0.16-0.104,0.315-0.216,0.427-0.293c-0.441-0.702-0.923-1.344-1.274-2.052     c-1.282-2.588-0.483-5.992,1.767-7.69c1.344-1.013,2.834-1.317,4.467-0.901c0.157,0.04,0.314,0.079,0.569,0.143     c-1.013-2.688-0.741-5.114,1.219-7.157c1.914-1.995,4.312-2.467,7.017-1.846c-0.267-2.342,0.288-4.387,1.967-6.023     c1.68-1.637,3.712-2.213,6.062-1.802c0.021-0.149,0.057-0.263,0.048-0.372c-0.122-1.469,0.499-2.589,1.643-3.446     c2.66-1.994,7.059-1.247,8.599,1.375C432.918,158.544,432.983,158.586,433.062,158.663z M449.99,219.514     c0.012-0.212,0.025-0.35,0.027-0.489c0.04-2.971,1.156-5.417,3.55-7.228c0.263-0.199,0.38-0.406,0.326-0.735     c-0.203-1.242-0.327-2.501-0.6-3.728c-0.688-3.092-1.767-6.049-3.297-8.829c-0.276-0.501-0.62-0.964-0.945-1.463     c-0.517,0.29-0.955,0.535-1.398,0.783c0.205,3.044-1.011,5.378-3.587,6.911c-2.616,1.558-5.253,1.464-7.76-0.312     c-0.554,0.487-1.076,0.945-1.581,1.389c0.008,0.085,0.003,0.136,0.018,0.18c1.14,3.229,2.677,6.243,4.967,8.816     c0.703,0.79,1.561,1.443,2.357,2.149c0.264,0.234,0.582,0.295,0.945,0.284c2.332-0.074,4.449,0.597,6.38,1.888     C449.568,219.247,449.747,219.358,449.99,219.514z M420.811,196.758c-0.011-0.063-0.021-0.126-0.032-0.189     c-0.162-0.007-0.325-0.022-0.487-0.021c-2.711,0.024-5.305-0.544-7.761-1.662c-0.747-0.34-1.437-0.438-2.214-0.283     c-1.06,0.212-2.068,0.531-2.903,1.254c-0.948,0.821-1.393,1.84-1.209,3.103c0.192,1.324,0.919,2.355,1.919,3.158     c2.728,2.193,5.775,2.846,9.141,1.715c0.138-0.046,0.272-0.11,0.414-0.135c0.606-0.106,0.987,0.319,0.817,0.917     c-0.073,0.256-0.203,0.495-0.27,0.752c-0.229,0.882,0.047,1.617,0.859,2.024c0.488,0.245,1.047,0.446,1.583,0.473     c0.863,0.043,1.757,0.034,2.597-0.144c2.616-0.554,4.86-1.763,6.476-3.978c0.214-0.293,0.425-0.519,0.372-0.948     c-0.212-1.718,0.088-3.379,0.68-4.995c0.072-0.197,0.137-0.398,0.201-0.587c-0.923,0.07-1.802,0.136-2.777,0.21     c-0.646,0.996-1.554,1.9-2.616,2.636c-0.431,0.299-0.924,0.517-1.41,0.723c-0.159,0.068-0.382-0.015-0.72-0.04     c0.991-1.598,2.673-2.295,3.607-3.668c-0.714-0.503-1.399-0.985-2.067-1.456c-0.608,0.409-1.226,0.83-1.849,1.243     c-1.034,0.687-2.103,1.299-3.329,1.586c-0.259,0.061-0.506,0.169-0.763,0.241c-0.56,0.159-1.119,0.322-1.684,0.458     c-0.486,0.117-0.798-0.035-0.88-0.386c-0.076-0.324,0.102-0.586,0.54-0.73c0.507-0.165,1.03-0.283,1.534-0.456     C419.33,197.319,420.068,197.032,420.811,196.758z M435.539,203.582c-0.085-0.156-0.181-0.295-0.241-0.448     c-0.111-0.283-0.37-0.628-0.066-0.864c0.338-0.262,0.547,0.137,0.771,0.333c0.091,0.079,0.164,0.178,0.246,0.267     c0.572,0.613,1.25,1.069,2.031,1.372c2.49,0.967,5.59-0.001,7.16-2.272c1.106-1.6,1.424-3.32,0.635-5.165     c-0.047-0.111-0.093-0.227-0.11-0.345c-0.041-0.289,0.046-0.542,0.319-0.672c0.277-0.132,0.529-0.034,0.711,0.195     c0.147,0.185,0.263,0.395,0.444,0.672c0.464-0.359,0.943-0.654,1.326-1.043c0.824-0.836,0.835-1.837,0.091-2.742     c-0.49-0.596-1.124-0.995-1.828-1.281c-1.829-0.744-3.714-0.862-5.638-0.466c-0.507,0.104-1.006,0.241-1.636,0.551     c0.357,0.162,0.555,0.247,0.749,0.342c0.754,0.368,1.361,0.925,1.925,1.529c0.161,0.173,0.292,0.388,0.386,0.606     c0.105,0.243,0.054,0.518-0.187,0.637c-0.17,0.084-0.432,0.102-0.604,0.03c-0.211-0.088-0.383-0.287-0.55-0.459     c-0.578-0.599-1.214-1.117-1.989-1.44c-1.122-0.468-1.338-0.395-1.937,0.623c-0.025,0.042-0.051,0.083-0.068,0.128     c-0.151,0.397-0.452,0.459-0.827,0.384c-0.255-0.051-0.515-0.082-0.78-0.123c-0.546,1.216-0.772,2.446-0.853,3.71     c-0.02,0.313-0.028,0.636-0.114,0.933c-0.044,0.151-0.238,0.339-0.383,0.358c-0.145,0.018-0.381-0.117-0.458-0.253     c-0.126-0.222-0.228-0.503-0.211-0.751c0.059-0.891,0.172-1.778,0.265-2.666c0.015-0.148,0.034-0.295,0.064-0.552     c-0.209,0.17-0.333,0.246-0.426,0.349c-1.899,2.135-2.768,4.639-2.587,7.482c0.037,0.586,0.246,1.193,0.507,1.725     c0.452,0.922,1.279,1.159,2.208,0.727C434.558,204.682,435.101,204.212,435.539,203.582z M436.51,192.863     c0.062-1.393,0.155-2.714-0.173-4.027c-0.086-0.346-0.134-0.722-0.095-1.072c0.041-0.376,0.439-0.508,0.709-0.242     c0.197,0.194,0.381,0.467,0.432,0.732c0.17,0.876,0.277,1.764,0.41,2.647c0.022,0.148,0.053,0.295,0.085,0.47     c1.982-1.38,3.097-1.506,4.433-1.65c0.536-0.058,0.862-0.278,1.088-0.706c0.847-1.601,0.757-3.19-0.209-4.69     c-0.789-1.226-1.864-1.344-3.016-0.431c-0.038,0.03-0.077,0.059-0.115,0.089c-0.508,0.401-0.708,0.377-0.957-0.238     c-0.319-0.788-0.895-1.31-1.588-1.736c-2.041-1.253-4.755-1.064-6.687,0.462c-1.976,1.56-2.578,3.711-1.75,6.246     c0.209,0.64,0.099,0.818-0.574,0.936c-0.429,0.075-0.872,0.112-1.284,0.243c-2.294,0.731-2.978,3.196-1.376,4.991     c0.981,1.099,2.23,1.575,3.711,1.469c0.806-0.057,1.476-0.427,2.164-0.791c0.296-0.157,0.483-0.359,0.628-0.69     c-0.206-0.068-0.369-0.106-0.517-0.175c-0.745-0.348-1.491-0.693-2.225-1.064c-0.187-0.094-0.378-0.253-0.473-0.433     c-0.089-0.168-0.124-0.431-0.055-0.601c0.102-0.251,0.38-0.291,0.628-0.199c0.226,0.083,0.439,0.204,0.649,0.324     c0.829,0.475,1.71,0.813,2.655,0.954c0.219,0.033,0.509,0.015,0.677-0.104C434.524,192.977,435.419,192.631,436.51,192.863z      M448.866,189.092c0.013,0.035,0.026,0.07,0.039,0.105c0.168-0.004,0.337,0.001,0.504-0.013c1.914-0.167,3.795-0.505,5.631-1.08     c0.185-0.058,0.371-0.113,0.56-0.156c0.284-0.065,0.554-0.023,0.682,0.264c0.13,0.293-0.042,0.528-0.273,0.681     c-0.261,0.172-0.538,0.354-0.834,0.43c-1.267,0.323-2.533,0.663-3.818,0.89c-1.09,0.193-2.205,0.241-3.41,0.363     c0.264,0.172,0.458,0.299,0.652,0.427c0.614,0.404,1.201,0.861,1.522,1.528c0.211,0.439,0.53,0.622,0.938,0.802     c3,1.321,5.782,0.83,8.372-1.029c1.397-1.003,2.393-2.332,2.79-4.043c0.54-2.332-0.543-4.467-2.748-5.395     c-0.465-0.196-0.969-0.304-1.46-0.432c-0.299-0.078-0.575-0.173-0.61-0.524c-0.033-0.335,0.19-0.502,0.456-0.671     c0.468-0.297,0.926-0.619,1.349-0.976c2.196-1.855,1.088-5.381-1.316-5.914c-0.421-0.093-0.851-0.165-1.281-0.2     c-1.045-0.084-2.02,0.263-2.966,0.618c-1.263,0.474-2.311,1.304-3.255,2.264c-0.189,0.192-0.265,0.383-0.161,0.571     c0.686,0.003,1.32-0.058,1.936,0.022c1.444,0.187,2.382,1.221,2.529,2.675c0.119,1.175-0.192,2.26-0.694,3.3     c-1.04,2.152-2.627,3.818-4.597,5.14C449.225,188.858,449.045,188.975,448.866,189.092z M439.837,161.545     c0.177,0.714,0.387,1.387,0.502,2.076c0.112,0.666,0.178,1.348,0.168,2.022c-0.01,0.699-0.091,1.404-0.224,2.09     c-0.128,0.666-0.361,1.312-0.559,2.007c2.286-0.688,2.991-0.5,4.86,1.289c0.416-0.725,0.822-1.435,1.233-2.143     c0.109-0.188,0.211-0.388,0.361-0.539c0.08-0.08,0.264-0.108,0.382-0.08c0.068,0.017,0.156,0.207,0.135,0.294     c-0.097,0.397-0.187,0.806-0.359,1.172c-0.319,0.679-0.7,1.329-1.04,1.999c-0.095,0.187-0.199,0.404-0.191,0.603     c0.019,0.455,0.104,0.906,0.159,1.338c0.65-0.113,1.283-0.278,1.925-0.318c0.7-0.044,1.369,0.194,1.841,0.721     c0.422,0.471,0.739,1.036,1.102,1.558c0.028-0.013,0.053-0.019,0.072-0.033c1.174-0.858,2.337-1.731,3.767-2.146     c0.151-0.044,0.287-0.242,0.372-0.4c0.826-1.519,0.825-3.078,0.082-4.609c-0.871-1.795-2.85-3.031-5.094-1.989     c-0.044,0.02-0.088,0.041-0.134,0.057c-0.524,0.184-0.85,0.021-0.971-0.515c-0.041-0.183-0.02-0.384-0.009-0.576     c0.048-0.801-0.14-1.553-0.58-2.211c-1.325-1.982-3.194-2.91-5.575-2.726C441.197,160.553,440.434,160.912,439.837,161.545z      M438.178,170.16c0.116-0.285,0.194-0.489,0.282-0.688c1.05-2.375,1.1-4.786,0.251-7.225c-0.323-0.928-0.809-1.762-1.56-2.416     c-0.653-0.569-1.405-0.897-2.275-0.676c-0.41,0.104-0.812,0.316-1.163,0.559c-0.874,0.606-1.212,0.563-1.72-0.335     c-0.395-0.698-0.942-1.23-1.658-1.581c-1.528-0.748-3.085-0.784-4.639-0.101c-0.826,0.363-1.466,0.947-1.776,1.824     c-0.336,0.95-0.049,1.748,0.773,2.313c1.603,1.102,2.574,2.599,2.789,4.557c0.017,0.155,0.086,0.304,0.142,0.491     c1.453-0.385,2.672,0.029,3.728,1.13c0.361-1.456,0.078-2.907,0.706-4.297c0.775,0.653,0.711,1.463,0.725,2.209     c0.014,0.753-0.098,1.509-0.156,2.279C435.197,167.654,435.974,167.921,438.178,170.16z M423.958,191.97     c0.084-0.26,0.113-0.461,0.208-0.622c0.291-0.489,0.173-0.921-0.131-1.345c-0.071-0.098-0.124-0.209-0.198-0.305     c-1.884-2.453-4.277-4.197-7.229-5.141c-0.407-0.13-0.858-0.171-1.288-0.169c-0.636,0.003-0.864,0.291-0.664,0.882     c0.16,0.474,0.432,0.913,0.681,1.352c0.159,0.28,0.351,0.541,0.158,0.871c-0.196,0.335-0.514,0.279-0.837,0.266     c-0.964-0.04-1.933-0.116-2.893-0.058c-0.665,0.04-1.354,0.193-1.971,0.447c-1.62,0.667-1.833,1.688-0.706,3.054     c0.658,0.798,1.479,1.398,2.376,1.892c2.661,1.466,5.518,2.243,8.553,2.291c0.839,0.013,1.69-0.12,2.517-0.281     c0.629-0.123,1.266-0.329,1.703-0.892c-0.108-0.364-0.21-0.709-0.314-1.06c-0.113-0.007-0.21-0.026-0.304-0.017     c-1.321,0.126-2.615-0.026-3.877-0.413c-0.385-0.118-0.771-0.301-1.092-0.541c-0.309-0.23-0.204-0.612,0.168-0.724     c0.177-0.053,0.385-0.05,0.57-0.02c0.43,0.071,0.856,0.167,1.28,0.266C421.735,191.953,422.815,192.016,423.958,191.97z      M422.633,175.015c-0.857-1.509-1.183-3.15-1.501-4.79c-0.063-0.326-0.046-0.676-0.006-1.008c0.016-0.132,0.18-0.322,0.304-0.345     c0.122-0.023,0.341,0.095,0.405,0.213c0.16,0.293,0.283,0.614,0.373,0.937c0.28,1.004,0.513,2.021,0.812,3.019     c0.15,0.501,0.403,0.972,0.631,1.506c0.422-0.183,0.77-0.333,1.143-0.494c-0.891-2.632-0.342-4.86,1.708-6.656     c-0.077-0.399-0.139-0.757-0.217-1.111c-0.663-3.028-3.45-4.787-6.417-4.053c-2.879,0.712-4.761,3.754-4.057,6.535     c0.107,0.422,0.306,0.718,0.677,0.97c1.397,0.954,2.294,2.272,2.702,3.919c0.033,0.134,0.095,0.262,0.149,0.409     C420.57,173.961,421.661,174.258,422.633,175.015z M439.669,182.106c0.252-0.338,0.495-0.636,0.709-0.954     c0.624-0.925,1.232-1.86,1.856-2.785c0.279-0.414,0.619-0.599,0.815-0.442c0.297,0.237,0.195,0.567,0.139,0.875     c-0.013,0.071-0.024,0.147-0.057,0.21c-0.267,0.514-0.516,1.04-0.817,1.534c-0.332,0.546-0.714,1.062-1.039,1.54     c0.625,0.213,1.244,0.315,1.734,0.622c0.517,0.323,0.911,0.841,1.4,1.315c0.153-0.063,0.365-0.123,0.548-0.231     c2.521-1.481,3.772-3.747,4.013-6.605c0.037-0.444-0.07-0.921-0.202-1.355c-0.319-1.047-1.151-1.522-2.207-1.207     c-0.544,0.163-1.036,0.505-1.543,0.782c-0.189,0.103-0.339,0.311-0.535,0.363c-0.211,0.056-0.487,0.049-0.679-0.045     c-0.251-0.123-0.218-0.404-0.136-0.648c0.054-0.161,0.119-0.318,0.17-0.48c0.249-0.792,0.231-1.575-0.077-2.35     c-0.497-1.25-1.777-1.943-2.977-1.612c-0.617,0.17-1.042,0.572-1.423,1.068c-0.42,0.546-0.203,1.104-0.13,1.673     c0.316,2.468-0.057,4.784-1.536,6.851c-0.038,0.053-0.046,0.129-0.073,0.209c0.351,0.233,0.71,0.436,1.024,0.692     C438.984,181.399,439.278,181.725,439.669,182.106z M429.517,175.428c0.102-0.212,0.159-0.346,0.229-0.473     c0.882-1.594,2.554-2.033,4.079-1.043c0.36,0.234,0.698,0.535,0.968,0.868c1.068,1.32,1.427,2.835,1.133,4.505     c-0.037,0.211-0.088,0.419-0.143,0.674c0.316,0.061,0.591,0.115,0.867,0.168c1.147-2.033,1.688-4.137,1.4-6.408     c-0.164-1.294-0.571-2.509-1.476-3.498c-1.096-1.199-2.562-1.412-3.95-0.584c-1.122,0.668-1.122,0.668-1.864-0.419     c-1.078-1.579-2.843-1.735-4.116-0.306c-1.185,1.33-1.423,2.868-0.792,4.542c0.134,0.354,0.332,0.541,0.728,0.594     c0.907,0.121,1.711,0.517,2.452,1.045C429.167,175.19,429.305,175.282,429.517,175.428z M459.615,181.54     c0.288,0.263,0.502,0.299,0.793,0.176c1.934-0.818,3.383-2.143,4.283-4.046c0.41-0.867,0.614-1.78,0.553-2.748     c-0.105-1.664-1.186-2.822-2.851-2.926c-0.642-0.04-1.301,0.074-1.942,0.179c-0.903,0.148-1.343-0.315-1.084-1.198     c0.048-0.163,0.114-0.32,0.153-0.485c0.5-2.099,0.04-3.95-1.511-5.466c-0.975-0.953-2.171-1.363-3.535-1.071     c-0.755,0.161-1.44,0.484-1.966,1.171c1.566,0.652,2.606,1.743,3.218,3.252c0.617,1.523,0.56,3.059,0.037,4.637     c2.465-0.086,4.549,0.469,5.508,2.951C462.129,178.185,461.506,180.047,459.615,181.54z M434.358,179.959     c0.835-1.236,0.515-3.724-1.049-4.915c-0.989-0.754-2.043-0.507-2.596,0.607c-0.139,0.28-0.217,0.59-0.321,0.887     c-0.215,0.616-0.641,0.757-1.175,0.375c-0.157-0.112-0.287-0.26-0.431-0.39c-0.622-0.56-1.324-0.985-2.137-1.201     c-1.923-0.51-3.406,0.521-3.601,2.498c-0.014,0.144-0.019,0.29-0.02,0.435c-0.009,2.335,1.731,4.738,4.027,5.55     c0.312,0.11,0.639,0.177,0.931,0.257c0.434-0.647,0.821-1.225,1.205-1.798c-1.753-1.696-2.055-2.187-1.843-3.036     c0.495,0.012,0.857,0.285,1.179,0.622c0.318,0.333,0.613,0.689,0.934,1.019c0.213,0.218,0.455,0.409,0.694,0.62     C431.45,180.556,432.845,180.108,434.358,179.959z M451.026,223.061c-0.242-0.639-0.457-1.227-0.693-1.806     c-0.051-0.124-0.161-0.243-0.274-0.321c-1.483-1.028-3.032-1.922-4.825-2.302c-1.629-0.346-3.228-0.301-4.766,0.408     c-1.286,0.593-2.215,1.528-2.781,2.897c0.236,0.035,0.421,0.063,0.606,0.089c0.935,0.127,1.906,0.131,2.758,0.584     c0.83,0.442,1.669,0.899,2.41,1.472c1.996,1.543,4.236,2.074,6.7,1.788c0.91-0.106,1.807-0.292,2.657-0.843     c-0.206-0.193-0.399-0.336-0.542-0.518c-0.281-0.357-0.623-0.45-1.074-0.447c-0.813,0.005-1.575-0.252-2.271-0.681     c-0.192-0.118-0.367-0.264-0.55-0.397c0.02-0.049,0.041-0.097,0.061-0.146C449.296,222.762,450.134,223.061,451.026,223.061z      M408.327,187.574c1.326-0.939,2.831-1.084,4.51-1.208c-0.333-0.196-0.509-0.277-0.659-0.391c-0.673-0.512-1.35-1.021-2-1.562     c-0.175-0.145-0.314-0.38-0.378-0.6c-0.122-0.417,0.162-0.679,0.57-0.525c0.265,0.1,0.5,0.287,0.74,0.449     c0.718,0.485,1.432,0.977,2.202,1.504c0.05-0.206,0.079-0.294,0.093-0.384c0.173-1.11,0.716-1.639,1.844-1.641     c0.62-0.001,1.242,0.155,1.861,0.251c0.205,0.032,0.404,0.098,0.649,0.16c-0.047-0.428-0.086-0.782-0.125-1.134     c-1.572-0.445-2.442-1.469-2.732-3.024c-0.035-0.19-0.163-0.418-0.318-0.523c-1.223-0.83-2.549-1.147-4.007-0.733     c-2.516,0.715-4.31,3.226-4.135,5.832C406.536,185.465,407.088,186.659,408.327,187.574z M418.007,174.408     c-0.131-1.774-1.531-3.926-4.142-4.547c-3.729-0.887-7.193,2.016-6.85,5.757c0.082,0.9,0.375,1.736,1.008,2.454     c1.879-1.336,3.875-1.639,6.138-0.776c-0.569-1.192-1.16-2.177-1.961-3.031c-0.441-0.469-0.5-0.783-0.209-1.053     c0.264-0.245,0.587-0.185,1.005,0.235c0.86,0.864,1.593,1.821,2.07,2.956c0.061,0.144,0.147,0.277,0.277,0.518     C415.982,175.733,416.884,174.954,418.007,174.408z M453.896,224.404c0.401-0.438,0.804-0.882,1.213-1.321     c1.15-1.234,1.771-2.706,1.916-4.374c0.061-0.697,0.054-1.402,0.047-2.104c-0.019-1.812,0.409-3.453,1.783-4.747     c-0.849-0.305-1.948-0.248-2.992,0.128c-3.806,1.368-5.591,6.075-4.069,9.695c0.152,0.361,0.362,0.698,0.573,1.099     c0.843-1.485,0.843-1.485,1.464-1.726c-0.176,0.7-0.337,1.346-0.502,1.992C453.118,223.865,453.117,223.865,453.896,224.404z      M405.752,195.643c-0.604-0.366-1.225-0.737-1.841-1.117c-0.506-0.312-0.673-0.621-0.506-0.905     c0.173-0.294,0.49-0.311,1.044-0.055c0.638,0.294,1.27,0.606,1.919,0.875c0.206,0.085,0.495,0.144,0.684,0.066     c0.865-0.359,1.708-0.771,2.622-1.192c-0.201-0.169-0.419-0.347-0.63-0.533c-0.776-0.681-1.487-1.433-1.69-2.477     c-0.102-0.523-0.368-0.749-0.814-0.871c-0.676-0.185-1.346-0.414-2.034-0.528c-0.896-0.148-1.788-0.037-2.647,0.285     c-1.717,0.644-2.668,2.309-2.312,4.051c0.48,2.349,2.888,4.418,5.275,4.564C405.148,197.048,405.469,196.302,405.752,195.643z      M444.723,189.167c0.495-0.076,0.963-0.084,1.388-0.223c3.402-1.118,5.766-3.362,7.124-6.668c0.118-0.288,0.19-0.603,0.231-0.913     c0.044-0.333,0.064-0.678,0.031-1.011c-0.087-0.867-0.597-1.424-1.45-1.588c-0.305-0.059-0.628-0.069-0.939-0.049     c-0.717,0.045-1.18,0.285-1.444,1.103c-0.64,1.989-1.826,3.628-3.691,4.683c-0.373,0.211-0.79,0.345-1.178,0.511     c0.079,0.687,0.225,1.358,0.215,2.027C445.001,187.706,444.837,188.373,444.723,189.167z M449.545,165.122     c0.175-0.037,0.29-0.079,0.406-0.084c0.883-0.036,1.529-0.389,2.117-1.108c0.43-0.525,0.656-1.014,0.561-1.623     c-0.084-0.541-0.222-1.107-0.483-1.581c-0.943-1.715-2.87-2.437-4.435-1.617c-0.647,0.339-0.908,0.222-1.297-0.447     c-0.528-0.907-1.245-1.607-2.197-2.05c-2.591-1.205-5.271,0.285-6.065,2.454c0.368,0.456,0.742,0.918,1.115,1.38     C442.742,157.589,449.145,160.269,449.545,165.122z M407.35,188.527c-0.493-0.67-1.014-1.303-1.443-1.992     c-0.243-0.39-0.495-0.662-0.934-0.834c-0.872-0.341-1.563-0.967-2.223-1.614c-0.268-0.263-0.274-0.565-0.07-0.776     c0.253-0.262,0.526-0.198,0.785-0.009c0.235,0.171,0.452,0.368,0.688,0.537c0.323,0.231,0.658,0.447,1.09,0.738     c-0.167-2.044,0.359-3.743,1.519-5.279c-1.562-0.781-3.073-0.895-4.526,0.078c-2.584,1.73-2.904,5.879-0.373,8.122     c0.275,0.243,0.553,0.241,0.876,0.189c1.074-0.173,2.131-0.064,3.16,0.27C406.402,188.12,406.886,188.343,407.35,188.527z      M427.632,184.985c-0.626-0.198-1.294-0.34-1.9-0.616c-1.223-0.557-2.119-1.503-2.844-2.62c-0.619-0.955-1.924-1.238-2.951-0.647     c-0.939,0.54-1.276,1.695-0.796,2.72c0.2,0.427,0.493,0.752,0.909,1c2.016,1.204,3.78,2.691,5.109,4.654     c0.037,0.055,0.106,0.089,0.086,0.073c0.871-0.355,1.689-0.689,2.491-1.016c-0.083-0.585-0.222-1.18-0.239-1.778     C427.479,186.157,427.583,185.557,427.632,184.985z M421.841,179.596c0.046-0.9,0.04-1.721,0.142-2.528     c0.091-0.715,0.096-0.886-0.496-1.269c-0.28-0.181-0.6-0.331-0.922-0.412c-2.294-0.576-4.753,1.654-4.417,3.99     c0.142,0.985,0.894,1.802,1.844,1.988C418.876,179.893,420.198,179.343,421.841,179.596z"></path>		</g>	</g></g><g></g><g></g><g></g><g></g><g></g><g></g><g></g><g></g><g></g><g></g><g></g><g></g><g></g><g></g><g></g></svg>